<svg xmlns="http://www.w3.org/2000/svg" width="2064.468" height="153.077" viewBox="0 0 2064.468 153.077">
  <g id="Groupe_5" data-name="Groupe 5" transform="translate(0.014 -0.002)">
    <rect id="Rectangle_21" data-name="Rectangle 21" width="4.092" height="157.632" transform="translate(-0.014 1.09) rotate(-15.381)" fill="#152533"/>
    <rect id="Rectangle_22" data-name="Rectangle 22" width="4.092" height="157.632" transform="matrix(0.964, -0.265, 0.265, 0.964, 14.829, 1.09)" fill="#152533"/>
    <rect id="Rectangle_23" data-name="Rectangle 23" width="4.092" height="157.632" transform="matrix(0.964, -0.265, 0.265, 0.964, 14.829, 1.09)" fill="#152533"/>
    <rect id="Rectangle_24" data-name="Rectangle 24" width="4.092" height="157.632" transform="translate(29.672 1.09) rotate(-15.381)" fill="#152533"/>
    <rect id="Rectangle_25" data-name="Rectangle 25" width="4.092" height="157.632" transform="translate(29.672 1.09) rotate(-15.381)" fill="#152533"/>
    <rect id="Rectangle_26" data-name="Rectangle 26" width="4.093" height="157.632" transform="translate(44.524 1.088) rotate(-15.375)" fill="#152533"/>
    <rect id="Rectangle_27" data-name="Rectangle 27" width="4.093" height="157.632" transform="translate(44.524 1.088) rotate(-15.375)" fill="#152533"/>
    <rect id="Rectangle_28" data-name="Rectangle 28" width="4.092" height="157.632" transform="translate(59.36 1.09) rotate(-15.381)" fill="#152533"/>
    <rect id="Rectangle_29" data-name="Rectangle 29" width="4.092" height="157.632" transform="translate(59.36 1.09) rotate(-15.381)" fill="#152533"/>
    <rect id="Rectangle_30" data-name="Rectangle 30" width="4.092" height="157.632" transform="translate(74.204 1.09) rotate(-15.381)" fill="#152533"/>
    <rect id="Rectangle_31" data-name="Rectangle 31" width="4.092" height="157.632" transform="translate(74.204 1.09) rotate(-15.381)" fill="#152533"/>
    <rect id="Rectangle_32" data-name="Rectangle 32" width="4.092" height="157.632" transform="translate(89.047 1.09) rotate(-15.381)" fill="#152533"/>
    <rect id="Rectangle_33" data-name="Rectangle 33" width="4.092" height="157.632" transform="translate(89.047 1.09) rotate(-15.381)" fill="#152533"/>
    <rect id="Rectangle_34" data-name="Rectangle 34" width="4.092" height="157.632" transform="translate(103.89 1.09) rotate(-15.381)" fill="#152533"/>
    <rect id="Rectangle_35" data-name="Rectangle 35" width="4.092" height="157.632" transform="translate(103.89 1.09) rotate(-15.381)" fill="#152533"/>
    <rect id="Rectangle_36" data-name="Rectangle 36" width="4.092" height="157.632" transform="translate(118.733 1.09) rotate(-15.381)" fill="#152533"/>
    <rect id="Rectangle_37" data-name="Rectangle 37" width="4.092" height="157.632" transform="translate(118.733 1.09) rotate(-15.381)" fill="#152533"/>
    <rect id="Rectangle_38" data-name="Rectangle 38" width="4.092" height="157.632" transform="translate(133.576 1.09) rotate(-15.381)" fill="#152533"/>
    <rect id="Rectangle_39" data-name="Rectangle 39" width="4.092" height="157.632" transform="translate(133.576 1.09) rotate(-15.381)" fill="#152533"/>
    <rect id="Rectangle_40" data-name="Rectangle 40" width="4.092" height="157.632" transform="translate(148.421 1.09) rotate(-15.381)" fill="#152533"/>
    <rect id="Rectangle_41" data-name="Rectangle 41" width="4.092" height="157.632" transform="translate(148.421 1.09) rotate(-15.381)" fill="#152533"/>
    <rect id="Rectangle_42" data-name="Rectangle 42" width="4.092" height="157.632" transform="translate(163.264 1.09) rotate(-15.381)" fill="#152533"/>
    <rect id="Rectangle_43" data-name="Rectangle 43" width="4.092" height="157.632" transform="translate(163.264 1.09) rotate(-15.381)" fill="#152533"/>
    <rect id="Rectangle_44" data-name="Rectangle 44" width="4.092" height="157.632" transform="translate(178.108 1.09) rotate(-15.381)" fill="#152533"/>
    <rect id="Rectangle_45" data-name="Rectangle 45" width="4.092" height="157.632" transform="translate(178.108 1.09) rotate(-15.381)" fill="#152533"/>
    <rect id="Rectangle_46" data-name="Rectangle 46" width="4.092" height="157.632" transform="translate(192.951 1.09) rotate(-15.381)" fill="#152533"/>
    <rect id="Rectangle_47" data-name="Rectangle 47" width="4.092" height="157.632" transform="translate(192.951 1.09) rotate(-15.381)" fill="#152533"/>
    <rect id="Rectangle_48" data-name="Rectangle 48" width="4.092" height="157.632" transform="translate(207.794 1.09) rotate(-15.381)" fill="#152533"/>
    <rect id="Rectangle_49" data-name="Rectangle 49" width="4.092" height="157.632" transform="translate(207.794 1.09) rotate(-15.381)" fill="#152533"/>
    <rect id="Rectangle_50" data-name="Rectangle 50" width="4.092" height="157.632" transform="translate(222.637 1.09) rotate(-15.381)" fill="#152533"/>
    <rect id="Rectangle_51" data-name="Rectangle 51" width="4.092" height="157.632" transform="translate(222.637 1.09) rotate(-15.381)" fill="#152533"/>
    <rect id="Rectangle_52" data-name="Rectangle 52" width="4.093" height="157.632" transform="translate(237.49 1.088) rotate(-15.374)" fill="#152533"/>
    <rect id="Rectangle_53" data-name="Rectangle 53" width="4.093" height="157.632" transform="translate(237.49 1.088) rotate(-15.374)" fill="#152533"/>
    <rect id="Rectangle_54" data-name="Rectangle 54" width="4.092" height="157.632" transform="translate(252.326 1.09) rotate(-15.381)" fill="#152533"/>
    <rect id="Rectangle_55" data-name="Rectangle 55" width="4.092" height="157.632" transform="translate(252.326 1.09) rotate(-15.381)" fill="#152533"/>
    <rect id="Rectangle_56" data-name="Rectangle 56" width="4.092" height="157.632" transform="translate(267.169 1.09) rotate(-15.381)" fill="#152533"/>
    <rect id="Rectangle_57" data-name="Rectangle 57" width="4.092" height="157.632" transform="translate(267.169 1.09) rotate(-15.381)" fill="#152533"/>
    <rect id="Rectangle_58" data-name="Rectangle 58" width="4.092" height="157.632" transform="translate(282.012 1.09) rotate(-15.381)" fill="#152533"/>
    <rect id="Rectangle_59" data-name="Rectangle 59" width="4.092" height="157.632" transform="translate(282.012 1.09) rotate(-15.381)" fill="#152533"/>
    <rect id="Rectangle_60" data-name="Rectangle 60" width="4.092" height="157.632" transform="translate(296.855 1.09) rotate(-15.381)" fill="#152533"/>
    <rect id="Rectangle_61" data-name="Rectangle 61" width="4.092" height="157.632" transform="translate(296.855 1.09) rotate(-15.381)" fill="#152533"/>
    <rect id="Rectangle_62" data-name="Rectangle 62" width="4.092" height="157.632" transform="translate(311.698 1.09) rotate(-15.381)" fill="#152533"/>
    <rect id="Rectangle_63" data-name="Rectangle 63" width="4.092" height="157.632" transform="translate(311.698 1.09) rotate(-15.381)" fill="#152533"/>
    <rect id="Rectangle_64" data-name="Rectangle 64" width="4.092" height="157.632" transform="translate(326.542 1.09) rotate(-15.381)" fill="#152533"/>
    <rect id="Rectangle_65" data-name="Rectangle 65" width="4.092" height="157.632" transform="translate(326.542 1.09) rotate(-15.381)" fill="#152533"/>
    <rect id="Rectangle_66" data-name="Rectangle 66" width="4.092" height="157.632" transform="translate(341.386 1.09) rotate(-15.381)" fill="#152533"/>
    <rect id="Rectangle_67" data-name="Rectangle 67" width="4.092" height="157.632" transform="translate(341.386 1.09) rotate(-15.381)" fill="#152533"/>
    <rect id="Rectangle_68" data-name="Rectangle 68" width="4.092" height="157.632" transform="translate(356.23 1.09) rotate(-15.381)" fill="#152533"/>
    <rect id="Rectangle_69" data-name="Rectangle 69" width="4.092" height="157.632" transform="translate(356.23 1.09) rotate(-15.381)" fill="#152533"/>
    <rect id="Rectangle_70" data-name="Rectangle 70" width="4.092" height="157.632" transform="translate(371.073 1.09) rotate(-15.381)" fill="#152533"/>
    <rect id="Rectangle_71" data-name="Rectangle 71" width="4.092" height="157.632" transform="translate(371.073 1.09) rotate(-15.381)" fill="#152533"/>
    <rect id="Rectangle_72" data-name="Rectangle 72" width="4.092" height="157.632" transform="translate(385.916 1.09) rotate(-15.381)" fill="#152533"/>
    <rect id="Rectangle_73" data-name="Rectangle 73" width="4.092" height="157.632" transform="translate(385.916 1.09) rotate(-15.381)" fill="#152533"/>
    <rect id="Rectangle_74" data-name="Rectangle 74" width="4.092" height="157.632" transform="translate(400.759 1.09) rotate(-15.381)" fill="#152533"/>
    <rect id="Rectangle_75" data-name="Rectangle 75" width="4.092" height="157.632" transform="translate(400.759 1.09) rotate(-15.381)" fill="#152533"/>
    <rect id="Rectangle_76" data-name="Rectangle 76" width="4.092" height="157.632" transform="translate(415.603 1.09) rotate(-15.381)" fill="#152533"/>
    <rect id="Rectangle_77" data-name="Rectangle 77" width="4.092" height="157.632" transform="translate(415.603 1.09) rotate(-15.381)" fill="#152533"/>
    <rect id="Rectangle_78" data-name="Rectangle 78" width="4.093" height="157.632" transform="translate(430.455 1.088) rotate(-15.374)" fill="#152533"/>
    <rect id="Rectangle_79" data-name="Rectangle 79" width="4.093" height="157.632" transform="translate(430.455 1.088) rotate(-15.374)" fill="#152533"/>
    <rect id="Rectangle_80" data-name="Rectangle 80" width="4.092" height="157.632" transform="translate(445.291 1.09) rotate(-15.381)" fill="#152533"/>
    <rect id="Rectangle_81" data-name="Rectangle 81" width="4.092" height="157.632" transform="translate(445.291 1.09) rotate(-15.381)" fill="#152533"/>
    <rect id="Rectangle_82" data-name="Rectangle 82" width="4.092" height="157.632" transform="translate(460.134 1.09) rotate(-15.381)" fill="#152533"/>
    <rect id="Rectangle_83" data-name="Rectangle 83" width="4.092" height="157.632" transform="translate(460.134 1.09) rotate(-15.381)" fill="#152533"/>
    <rect id="Rectangle_84" data-name="Rectangle 84" width="4.092" height="157.632" transform="translate(474.977 1.09) rotate(-15.381)" fill="#152533"/>
    <rect id="Rectangle_85" data-name="Rectangle 85" width="4.092" height="157.632" transform="translate(474.977 1.09) rotate(-15.381)" fill="#152533"/>
    <rect id="Rectangle_86" data-name="Rectangle 86" width="4.092" height="157.632" transform="translate(489.82 1.09) rotate(-15.381)" fill="#152533"/>
    <rect id="Rectangle_87" data-name="Rectangle 87" width="4.092" height="157.632" transform="translate(489.82 1.09) rotate(-15.381)" fill="#152533"/>
    <rect id="Rectangle_88" data-name="Rectangle 88" width="4.092" height="157.632" transform="translate(504.664 1.09) rotate(-15.381)" fill="#152533"/>
    <rect id="Rectangle_89" data-name="Rectangle 89" width="4.092" height="157.632" transform="translate(504.664 1.09) rotate(-15.381)" fill="#152533"/>
    <rect id="Rectangle_90" data-name="Rectangle 90" width="4.093" height="157.632" transform="translate(519.507 1.09) rotate(-15.381)" fill="#152533"/>
    <rect id="Rectangle_91" data-name="Rectangle 91" width="4.093" height="157.632" transform="translate(519.507 1.09) rotate(-15.381)" fill="#152533"/>
    <rect id="Rectangle_92" data-name="Rectangle 92" width="4.092" height="157.632" transform="translate(534.352 1.09) rotate(-15.381)" fill="#152533"/>
    <rect id="Rectangle_93" data-name="Rectangle 93" width="4.092" height="157.632" transform="translate(534.352 1.09) rotate(-15.381)" fill="#152533"/>
    <rect id="Rectangle_94" data-name="Rectangle 94" width="4.092" height="157.632" transform="translate(549.195 1.09) rotate(-15.381)" fill="#152533"/>
    <rect id="Rectangle_95" data-name="Rectangle 95" width="4.092" height="157.632" transform="translate(549.195 1.09) rotate(-15.381)" fill="#152533"/>
    <rect id="Rectangle_96" data-name="Rectangle 96" width="4.092" height="157.632" transform="translate(564.038 1.09) rotate(-15.381)" fill="#152533"/>
    <rect id="Rectangle_97" data-name="Rectangle 97" width="4.092" height="157.632" transform="translate(564.038 1.09) rotate(-15.381)" fill="#152533"/>
    <rect id="Rectangle_98" data-name="Rectangle 98" width="4.092" height="157.632" transform="translate(578.881 1.09) rotate(-15.381)" fill="#152533"/>
    <rect id="Rectangle_99" data-name="Rectangle 99" width="4.092" height="157.632" transform="translate(578.881 1.09) rotate(-15.381)" fill="#152533"/>
    <rect id="Rectangle_100" data-name="Rectangle 100" width="4.092" height="157.632" transform="translate(593.724 1.09) rotate(-15.381)" fill="#152533"/>
    <rect id="Rectangle_101" data-name="Rectangle 101" width="4.092" height="157.632" transform="translate(593.724 1.09) rotate(-15.381)" fill="#152533"/>
    <rect id="Rectangle_102" data-name="Rectangle 102" width="4.092" height="157.632" transform="translate(608.568 1.09) rotate(-15.381)" fill="#152533"/>
    <rect id="Rectangle_103" data-name="Rectangle 103" width="4.092" height="157.632" transform="translate(608.568 1.09) rotate(-15.381)" fill="#152533"/>
    <rect id="Rectangle_104" data-name="Rectangle 104" width="4.092" height="157.632" transform="translate(623.413 1.09) rotate(-15.381)" fill="#152533"/>
    <rect id="Rectangle_105" data-name="Rectangle 105" width="4.092" height="157.632" transform="translate(623.413 1.09) rotate(-15.381)" fill="#152533"/>
    <rect id="Rectangle_106" data-name="Rectangle 106" width="4.092" height="157.632" transform="translate(638.256 1.09) rotate(-15.381)" fill="#152533"/>
    <rect id="Rectangle_107" data-name="Rectangle 107" width="4.092" height="157.632" transform="translate(638.256 1.09) rotate(-15.381)" fill="#152533"/>
    <rect id="Rectangle_108" data-name="Rectangle 108" width="4.092" height="157.632" transform="translate(653.099 1.09) rotate(-15.381)" fill="#152533"/>
    <rect id="Rectangle_109" data-name="Rectangle 109" width="4.092" height="157.632" transform="translate(653.099 1.09) rotate(-15.381)" fill="#152533"/>
    <rect id="Rectangle_110" data-name="Rectangle 110" width="4.092" height="157.632" transform="translate(667.942 1.09) rotate(-15.381)" fill="#152533"/>
    <rect id="Rectangle_111" data-name="Rectangle 111" width="4.092" height="157.632" transform="translate(667.942 1.09) rotate(-15.381)" fill="#152533"/>
    <rect id="Rectangle_112" data-name="Rectangle 112" width="4.092" height="157.632" transform="translate(682.785 1.09) rotate(-15.381)" fill="#152533"/>
    <rect id="Rectangle_113" data-name="Rectangle 113" width="4.092" height="157.632" transform="translate(682.785 1.09) rotate(-15.381)" fill="#152533"/>
    <rect id="Rectangle_114" data-name="Rectangle 114" width="4.092" height="157.632" transform="translate(697.629 1.09) rotate(-15.381)" fill="#152533"/>
    <rect id="Rectangle_115" data-name="Rectangle 115" width="4.092" height="157.632" transform="translate(697.629 1.09) rotate(-15.381)" fill="#152533"/>
    <rect id="Rectangle_116" data-name="Rectangle 116" width="4.093" height="157.632" transform="translate(712.481 1.088) rotate(-15.374)" fill="#152533"/>
    <rect id="Rectangle_117" data-name="Rectangle 117" width="4.093" height="157.632" transform="translate(712.481 1.088) rotate(-15.374)" fill="#152533"/>
    <rect id="Rectangle_118" data-name="Rectangle 118" width="4.092" height="157.632" transform="translate(727.317 1.09) rotate(-15.381)" fill="#152533"/>
    <rect id="Rectangle_119" data-name="Rectangle 119" width="4.092" height="157.632" transform="translate(727.317 1.09) rotate(-15.381)" fill="#152533"/>
    <rect id="Rectangle_120" data-name="Rectangle 120" width="4.092" height="157.632" transform="translate(742.16 1.09) rotate(-15.381)" fill="#152533"/>
    <rect id="Rectangle_121" data-name="Rectangle 121" width="4.092" height="157.632" transform="translate(742.16 1.09) rotate(-15.381)" fill="#152533"/>
    <rect id="Rectangle_122" data-name="Rectangle 122" width="4.092" height="157.632" transform="translate(757.003 1.09) rotate(-15.381)" fill="#152533"/>
    <rect id="Rectangle_123" data-name="Rectangle 123" width="4.092" height="157.632" transform="translate(757.003 1.09) rotate(-15.381)" fill="#152533"/>
    <rect id="Rectangle_124" data-name="Rectangle 124" width="4.092" height="157.632" transform="translate(771.846 1.09) rotate(-15.381)" fill="#152533"/>
    <rect id="Rectangle_125" data-name="Rectangle 125" width="4.092" height="157.632" transform="translate(771.846 1.09) rotate(-15.381)" fill="#152533"/>
    <rect id="Rectangle_126" data-name="Rectangle 126" width="4.092" height="157.632" transform="translate(786.69 1.09) rotate(-15.381)" fill="#152533"/>
    <rect id="Rectangle_127" data-name="Rectangle 127" width="4.092" height="157.632" transform="translate(786.69 1.09) rotate(-15.381)" fill="#152533"/>
    <rect id="Rectangle_128" data-name="Rectangle 128" width="4.092" height="157.632" transform="translate(801.533 1.09) rotate(-15.381)" fill="#152533"/>
    <rect id="Rectangle_129" data-name="Rectangle 129" width="4.092" height="157.632" transform="translate(801.533 1.09) rotate(-15.381)" fill="#152533"/>
    <rect id="Rectangle_130" data-name="Rectangle 130" width="4.092" height="157.632" transform="translate(816.378 1.09) rotate(-15.381)" fill="#152533"/>
    <rect id="Rectangle_131" data-name="Rectangle 131" width="4.092" height="157.632" transform="translate(816.378 1.09) rotate(-15.381)" fill="#152533"/>
    <rect id="Rectangle_132" data-name="Rectangle 132" width="4.092" height="157.632" transform="translate(831.221 1.09) rotate(-15.381)" fill="#152533"/>
    <rect id="Rectangle_133" data-name="Rectangle 133" width="4.092" height="157.632" transform="translate(831.221 1.09) rotate(-15.381)" fill="#152533"/>
    <rect id="Rectangle_134" data-name="Rectangle 134" width="4.092" height="157.632" transform="translate(846.064 1.09) rotate(-15.381)" fill="#152533"/>
    <rect id="Rectangle_135" data-name="Rectangle 135" width="4.092" height="157.632" transform="translate(846.064 1.09) rotate(-15.381)" fill="#152533"/>
    <rect id="Rectangle_136" data-name="Rectangle 136" width="4.092" height="157.632" transform="translate(860.907 1.09) rotate(-15.381)" fill="#152533"/>
    <rect id="Rectangle_137" data-name="Rectangle 137" width="4.092" height="157.632" transform="translate(860.907 1.09) rotate(-15.381)" fill="#152533"/>
    <rect id="Rectangle_138" data-name="Rectangle 138" width="4.092" height="157.632" transform="translate(875.751 1.09) rotate(-15.381)" fill="#152533"/>
    <rect id="Rectangle_139" data-name="Rectangle 139" width="4.092" height="157.632" transform="translate(875.751 1.09) rotate(-15.381)" fill="#152533"/>
    <rect id="Rectangle_140" data-name="Rectangle 140" width="4.092" height="157.632" transform="translate(890.594 1.09) rotate(-15.381)" fill="#152533"/>
    <rect id="Rectangle_141" data-name="Rectangle 141" width="4.092" height="157.632" transform="translate(890.594 1.09) rotate(-15.381)" fill="#152533"/>
    <rect id="Rectangle_142" data-name="Rectangle 142" width="4.093" height="157.632" transform="translate(905.446 1.088) rotate(-15.374)" fill="#152533"/>
    <rect id="Rectangle_143" data-name="Rectangle 143" width="4.093" height="157.632" transform="translate(905.446 1.088) rotate(-15.374)" fill="#152533"/>
    <rect id="Rectangle_144" data-name="Rectangle 144" width="4.092" height="157.632" transform="translate(920.282 1.09) rotate(-15.381)" fill="#152533"/>
    <rect id="Rectangle_145" data-name="Rectangle 145" width="4.092" height="157.632" transform="translate(920.282 1.09) rotate(-15.381)" fill="#152533"/>
    <rect id="Rectangle_146" data-name="Rectangle 146" width="4.092" height="157.632" transform="translate(935.125 1.09) rotate(-15.381)" fill="#152533"/>
    <rect id="Rectangle_147" data-name="Rectangle 147" width="4.092" height="157.632" transform="translate(935.125 1.09) rotate(-15.381)" fill="#152533"/>
    <rect id="Rectangle_148" data-name="Rectangle 148" width="4.092" height="157.632" transform="translate(949.968 1.09) rotate(-15.381)" fill="#152533"/>
    <rect id="Rectangle_149" data-name="Rectangle 149" width="4.092" height="157.632" transform="translate(949.968 1.09) rotate(-15.381)" fill="#152533"/>
    <rect id="Rectangle_150" data-name="Rectangle 150" width="4.092" height="157.632" transform="translate(964.812 1.09) rotate(-15.381)" fill="#152533"/>
    <rect id="Rectangle_151" data-name="Rectangle 151" width="4.092" height="157.632" transform="translate(964.812 1.09) rotate(-15.381)" fill="#152533"/>
    <rect id="Rectangle_152" data-name="Rectangle 152" width="4.092" height="157.632" transform="translate(979.655 1.09) rotate(-15.381)" fill="#152533"/>
    <rect id="Rectangle_153" data-name="Rectangle 153" width="4.092" height="157.632" transform="translate(979.655 1.09) rotate(-15.381)" fill="#152533"/>
    <rect id="Rectangle_154" data-name="Rectangle 154" width="4.093" height="157.632" transform="translate(994.498 1.09) rotate(-15.381)" fill="#152533"/>
    <rect id="Rectangle_155" data-name="Rectangle 155" width="4.093" height="157.632" transform="translate(994.498 1.09) rotate(-15.381)" fill="#152533"/>
    <rect id="Rectangle_156" data-name="Rectangle 156" width="4.092" height="157.632" transform="translate(1009.343 1.09) rotate(-15.381)" fill="#152533"/>
    <rect id="Rectangle_157" data-name="Rectangle 157" width="4.092" height="157.632" transform="translate(1009.343 1.09) rotate(-15.381)" fill="#152533"/>
    <rect id="Rectangle_158" data-name="Rectangle 158" width="4.092" height="157.632" transform="translate(1024.186 1.09) rotate(-15.381)" fill="#152533"/>
    <rect id="Rectangle_159" data-name="Rectangle 159" width="4.092" height="157.632" transform="translate(1024.186 1.09) rotate(-15.381)" fill="#152533"/>
    <rect id="Rectangle_160" data-name="Rectangle 160" width="4.092" height="157.632" transform="translate(1039.029 1.09) rotate(-15.381)" fill="#152533"/>
    <rect id="Rectangle_161" data-name="Rectangle 161" width="4.092" height="157.632" transform="translate(1039.029 1.09) rotate(-15.381)" fill="#152533"/>
    <rect id="Rectangle_162" data-name="Rectangle 162" width="4.092" height="157.632" transform="translate(1053.873 1.09) rotate(-15.381)" fill="#152533"/>
    <rect id="Rectangle_163" data-name="Rectangle 163" width="4.092" height="157.632" transform="translate(1053.873 1.09) rotate(-15.381)" fill="#152533"/>
    <rect id="Rectangle_164" data-name="Rectangle 164" width="4.092" height="157.632" transform="translate(1068.716 1.09) rotate(-15.381)" fill="#152533"/>
    <rect id="Rectangle_165" data-name="Rectangle 165" width="4.092" height="157.632" transform="translate(1068.716 1.09) rotate(-15.381)" fill="#152533"/>
    <rect id="Rectangle_166" data-name="Rectangle 166" width="4.092" height="157.632" transform="translate(1083.559 1.09) rotate(-15.381)" fill="#152533"/>
    <rect id="Rectangle_167" data-name="Rectangle 167" width="4.092" height="157.632" transform="translate(1083.559 1.09) rotate(-15.381)" fill="#152533"/>
    <rect id="Rectangle_168" data-name="Rectangle 168" width="4.092" height="157.632" transform="translate(1098.404 1.09) rotate(-15.381)" fill="#152533"/>
    <rect id="Rectangle_169" data-name="Rectangle 169" width="4.092" height="157.632" transform="translate(1098.404 1.09) rotate(-15.381)" fill="#152533"/>
    <rect id="Rectangle_170" data-name="Rectangle 170" width="4.092" height="157.632" transform="translate(1113.247 1.09) rotate(-15.381)" fill="#152533"/>
    <rect id="Rectangle_171" data-name="Rectangle 171" width="4.092" height="157.632" transform="translate(1113.247 1.09) rotate(-15.381)" fill="#152533"/>
    <rect id="Rectangle_172" data-name="Rectangle 172" width="4.092" height="157.632" transform="translate(1128.09 1.09) rotate(-15.381)" fill="#152533"/>
    <rect id="Rectangle_173" data-name="Rectangle 173" width="4.092" height="157.632" transform="translate(1128.09 1.09) rotate(-15.381)" fill="#152533"/>
    <rect id="Rectangle_174" data-name="Rectangle 174" width="4.092" height="157.632" transform="translate(1142.933 1.09) rotate(-15.381)" fill="#152533"/>
    <rect id="Rectangle_175" data-name="Rectangle 175" width="4.092" height="157.632" transform="translate(1142.933 1.09) rotate(-15.381)" fill="#152533"/>
    <rect id="Rectangle_176" data-name="Rectangle 176" width="4.092" height="157.632" transform="translate(1157.777 1.09) rotate(-15.381)" fill="#152533"/>
    <rect id="Rectangle_177" data-name="Rectangle 177" width="4.092" height="157.632" transform="translate(1157.777 1.09) rotate(-15.381)" fill="#152533"/>
    <rect id="Rectangle_178" data-name="Rectangle 178" width="4.092" height="157.632" transform="translate(1172.62 1.09) rotate(-15.381)" fill="#152533"/>
    <rect id="Rectangle_179" data-name="Rectangle 179" width="4.092" height="157.632" transform="translate(1172.62 1.09) rotate(-15.381)" fill="#152533"/>
    <rect id="Rectangle_180" data-name="Rectangle 180" width="4.093" height="157.632" transform="translate(1187.463 1.09) rotate(-15.381)" fill="#152533"/>
    <rect id="Rectangle_181" data-name="Rectangle 181" width="4.093" height="157.632" transform="translate(1187.463 1.09) rotate(-15.381)" fill="#152533"/>
    <rect id="Rectangle_182" data-name="Rectangle 182" width="4.092" height="157.632" transform="translate(1202.308 1.09) rotate(-15.381)" fill="#152533"/>
    <rect id="Rectangle_183" data-name="Rectangle 183" width="4.092" height="157.632" transform="translate(1202.308 1.09) rotate(-15.381)" fill="#152533"/>
    <rect id="Rectangle_184" data-name="Rectangle 184" width="4.092" height="157.632" transform="translate(1217.151 1.09) rotate(-15.381)" fill="#152533"/>
    <rect id="Rectangle_185" data-name="Rectangle 185" width="4.092" height="157.632" transform="translate(1217.151 1.09) rotate(-15.381)" fill="#152533"/>
    <rect id="Rectangle_186" data-name="Rectangle 186" width="4.092" height="157.632" transform="translate(1231.994 1.09) rotate(-15.381)" fill="#152533"/>
    <rect id="Rectangle_187" data-name="Rectangle 187" width="4.092" height="157.632" transform="translate(1231.994 1.09) rotate(-15.381)" fill="#152533"/>
    <rect id="Rectangle_188" data-name="Rectangle 188" width="4.092" height="157.632" transform="translate(1246.838 1.09) rotate(-15.381)" fill="#152533"/>
    <rect id="Rectangle_189" data-name="Rectangle 189" width="4.092" height="157.632" transform="translate(1246.838 1.09) rotate(-15.381)" fill="#152533"/>
    <rect id="Rectangle_190" data-name="Rectangle 190" width="4.092" height="157.632" transform="translate(1261.681 1.09) rotate(-15.381)" fill="#152533"/>
    <rect id="Rectangle_191" data-name="Rectangle 191" width="4.092" height="157.632" transform="translate(1261.681 1.09) rotate(-15.381)" fill="#152533"/>
    <rect id="Rectangle_192" data-name="Rectangle 192" width="4.092" height="157.632" transform="translate(1276.524 1.09) rotate(-15.381)" fill="#152533"/>
    <rect id="Rectangle_193" data-name="Rectangle 193" width="4.092" height="157.632" transform="translate(1276.524 1.09) rotate(-15.381)" fill="#152533"/>
    <rect id="Rectangle_194" data-name="Rectangle 194" width="4.092" height="157.632" transform="translate(1291.369 1.09) rotate(-15.381)" fill="#152533"/>
    <rect id="Rectangle_195" data-name="Rectangle 195" width="4.092" height="157.632" transform="translate(1291.369 1.09) rotate(-15.381)" fill="#152533"/>
    <rect id="Rectangle_196" data-name="Rectangle 196" width="4.092" height="157.632" transform="translate(1306.212 1.09) rotate(-15.381)" fill="#152533"/>
    <rect id="Rectangle_197" data-name="Rectangle 197" width="4.092" height="157.632" transform="translate(1306.212 1.09) rotate(-15.381)" fill="#152533"/>
    <rect id="Rectangle_198" data-name="Rectangle 198" width="4.092" height="157.632" transform="translate(1321.055 1.09) rotate(-15.381)" fill="#152533"/>
    <rect id="Rectangle_199" data-name="Rectangle 199" width="4.092" height="157.632" transform="translate(1321.055 1.09) rotate(-15.381)" fill="#152533"/>
    <rect id="Rectangle_200" data-name="Rectangle 200" width="4.092" height="157.632" transform="translate(1335.899 1.09) rotate(-15.381)" fill="#152533"/>
    <rect id="Rectangle_201" data-name="Rectangle 201" width="4.092" height="157.632" transform="translate(1335.899 1.09) rotate(-15.381)" fill="#152533"/>
    <rect id="Rectangle_202" data-name="Rectangle 202" width="4.092" height="157.632" transform="translate(1350.742 1.09) rotate(-15.381)" fill="#152533"/>
    <rect id="Rectangle_203" data-name="Rectangle 203" width="4.092" height="157.632" transform="translate(1350.742 1.09) rotate(-15.381)" fill="#152533"/>
    <rect id="Rectangle_204" data-name="Rectangle 204" width="4.092" height="157.632" transform="translate(1365.585 1.09) rotate(-15.381)" fill="#152533"/>
    <rect id="Rectangle_205" data-name="Rectangle 205" width="4.092" height="157.632" transform="translate(1365.585 1.09) rotate(-15.381)" fill="#152533"/>
    <rect id="Rectangle_206" data-name="Rectangle 206" width="4.092" height="157.632" transform="translate(1380.429 1.09) rotate(-15.381)" fill="#152533"/>
    <rect id="Rectangle_207" data-name="Rectangle 207" width="4.092" height="157.632" transform="translate(1380.429 1.09) rotate(-15.381)" fill="#152533"/>
    <rect id="Rectangle_208" data-name="Rectangle 208" width="4.092" height="157.632" transform="translate(1395.273 1.09) rotate(-15.381)" fill="#152533"/>
    <rect id="Rectangle_209" data-name="Rectangle 209" width="4.092" height="157.632" transform="translate(1395.273 1.09) rotate(-15.381)" fill="#152533"/>
    <rect id="Rectangle_210" data-name="Rectangle 210" width="4.092" height="157.632" transform="translate(1410.116 1.09) rotate(-15.381)" fill="#152533"/>
    <rect id="Rectangle_211" data-name="Rectangle 211" width="4.092" height="157.632" transform="translate(1410.116 1.09) rotate(-15.381)" fill="#152533"/>
    <rect id="Rectangle_212" data-name="Rectangle 212" width="4.092" height="157.632" transform="translate(1424.96 1.09) rotate(-15.381)" fill="#152533"/>
    <rect id="Rectangle_213" data-name="Rectangle 213" width="4.092" height="157.632" transform="translate(1424.96 1.09) rotate(-15.381)" fill="#152533"/>
    <rect id="Rectangle_214" data-name="Rectangle 214" width="4.092" height="157.632" transform="translate(1439.803 1.09) rotate(-15.381)" fill="#152533"/>
    <rect id="Rectangle_215" data-name="Rectangle 215" width="4.092" height="157.632" transform="translate(1439.803 1.09) rotate(-15.381)" fill="#152533"/>
    <rect id="Rectangle_216" data-name="Rectangle 216" width="4.092" height="157.632" transform="translate(1454.646 1.09) rotate(-15.381)" fill="#152533"/>
    <rect id="Rectangle_217" data-name="Rectangle 217" width="4.092" height="157.632" transform="translate(1454.646 1.09) rotate(-15.381)" fill="#152533"/>
    <rect id="Rectangle_218" data-name="Rectangle 218" width="4.092" height="157.632" transform="translate(1469.489 1.09) rotate(-15.381)" fill="#152533"/>
    <rect id="Rectangle_219" data-name="Rectangle 219" width="4.092" height="157.632" transform="translate(1469.489 1.09) rotate(-15.381)" fill="#152533"/>
    <rect id="Rectangle_220" data-name="Rectangle 220" width="4.092" height="157.632" transform="translate(1484.334 1.09) rotate(-15.381)" fill="#152533"/>
    <rect id="Rectangle_221" data-name="Rectangle 221" width="4.092" height="157.632" transform="translate(1484.334 1.09) rotate(-15.381)" fill="#152533"/>
    <rect id="Rectangle_222" data-name="Rectangle 222" width="4.092" height="157.632" transform="translate(1499.177 1.09) rotate(-15.381)" fill="#152533"/>
    <rect id="Rectangle_223" data-name="Rectangle 223" width="4.092" height="157.632" transform="translate(1499.177 1.09) rotate(-15.381)" fill="#152533"/>
    <rect id="Rectangle_224" data-name="Rectangle 224" width="4.092" height="157.632" transform="translate(1514.021 1.09) rotate(-15.381)" fill="#152533"/>
    <rect id="Rectangle_225" data-name="Rectangle 225" width="4.092" height="157.632" transform="translate(1514.021 1.09) rotate(-15.381)" fill="#152533"/>
    <rect id="Rectangle_226" data-name="Rectangle 226" width="4.092" height="157.632" transform="translate(1528.864 1.09) rotate(-15.381)" fill="#152533"/>
    <rect id="Rectangle_227" data-name="Rectangle 227" width="4.092" height="157.632" transform="translate(1528.864 1.09) rotate(-15.381)" fill="#152533"/>
    <rect id="Rectangle_228" data-name="Rectangle 228" width="4.092" height="157.632" transform="translate(1543.707 1.09) rotate(-15.381)" fill="#152533"/>
    <rect id="Rectangle_229" data-name="Rectangle 229" width="4.092" height="157.632" transform="translate(1543.707 1.09) rotate(-15.381)" fill="#152533"/>
    <rect id="Rectangle_230" data-name="Rectangle 230" width="4.092" height="157.632" transform="translate(1558.55 1.09) rotate(-15.381)" fill="#152533"/>
    <rect id="Rectangle_231" data-name="Rectangle 231" width="4.092" height="157.632" transform="translate(1558.55 1.09) rotate(-15.381)" fill="#152533"/>
    <rect id="Rectangle_232" data-name="Rectangle 232" width="4.093" height="157.632" transform="translate(1573.403 1.087) rotate(-15.374)" fill="#152533"/>
    <rect id="Rectangle_233" data-name="Rectangle 233" width="4.093" height="157.632" transform="translate(1573.403 1.087) rotate(-15.374)" fill="#152533"/>
    <rect id="Rectangle_234" data-name="Rectangle 234" width="4.092" height="157.632" transform="translate(1588.238 1.09) rotate(-15.381)" fill="#152533"/>
    <rect id="Rectangle_235" data-name="Rectangle 235" width="4.092" height="157.632" transform="translate(1588.238 1.09) rotate(-15.381)" fill="#152533"/>
    <rect id="Rectangle_236" data-name="Rectangle 236" width="4.092" height="157.632" transform="translate(1603.082 1.09) rotate(-15.381)" fill="#152533"/>
    <rect id="Rectangle_237" data-name="Rectangle 237" width="4.092" height="157.632" transform="translate(1603.082 1.09) rotate(-15.381)" fill="#152533"/>
    <rect id="Rectangle_238" data-name="Rectangle 238" width="4.092" height="157.632" transform="translate(1617.925 1.09) rotate(-15.381)" fill="#152533"/>
    <rect id="Rectangle_239" data-name="Rectangle 239" width="4.092" height="157.632" transform="translate(1617.925 1.09) rotate(-15.381)" fill="#152533"/>
    <rect id="Rectangle_240" data-name="Rectangle 240" width="4.092" height="157.632" transform="translate(1632.768 1.09) rotate(-15.381)" fill="#152533"/>
    <rect id="Rectangle_241" data-name="Rectangle 241" width="4.092" height="157.632" transform="translate(1632.768 1.09) rotate(-15.381)" fill="#152533"/>
    <rect id="Rectangle_242" data-name="Rectangle 242" width="4.092" height="157.632" transform="translate(1647.611 1.09) rotate(-15.381)" fill="#152533"/>
    <rect id="Rectangle_243" data-name="Rectangle 243" width="4.092" height="157.632" transform="translate(1647.611 1.09) rotate(-15.381)" fill="#152533"/>
    <rect id="Rectangle_244" data-name="Rectangle 244" width="4.092" height="157.632" transform="translate(1662.454 1.09) rotate(-15.381)" fill="#152533"/>
    <rect id="Rectangle_245" data-name="Rectangle 245" width="4.092" height="157.632" transform="translate(1662.454 1.09) rotate(-15.381)" fill="#152533"/>
    <rect id="Rectangle_246" data-name="Rectangle 246" width="4.092" height="157.632" transform="translate(1677.299 1.09) rotate(-15.381)" fill="#152533"/>
    <rect id="Rectangle_247" data-name="Rectangle 247" width="4.092" height="157.632" transform="translate(1677.299 1.09) rotate(-15.381)" fill="#152533"/>
    <rect id="Rectangle_248" data-name="Rectangle 248" width="4.092" height="157.632" transform="translate(1692.142 1.09) rotate(-15.381)" fill="#152533"/>
    <rect id="Rectangle_249" data-name="Rectangle 249" width="4.092" height="157.632" transform="translate(1692.142 1.09) rotate(-15.381)" fill="#152533"/>
    <rect id="Rectangle_250" data-name="Rectangle 250" width="4.092" height="157.632" transform="translate(1706.986 1.09) rotate(-15.381)" fill="#152533"/>
    <rect id="Rectangle_251" data-name="Rectangle 251" width="4.092" height="157.632" transform="translate(1706.986 1.09) rotate(-15.381)" fill="#152533"/>
    <rect id="Rectangle_252" data-name="Rectangle 252" width="4.092" height="157.632" transform="translate(1721.829 1.09) rotate(-15.381)" fill="#152533"/>
    <rect id="Rectangle_253" data-name="Rectangle 253" width="4.092" height="157.632" transform="translate(1721.829 1.09) rotate(-15.381)" fill="#152533"/>
    <rect id="Rectangle_254" data-name="Rectangle 254" width="4.092" height="157.632" transform="translate(1736.672 1.09) rotate(-15.381)" fill="#152533"/>
    <rect id="Rectangle_255" data-name="Rectangle 255" width="4.092" height="157.632" transform="translate(1736.672 1.09) rotate(-15.381)" fill="#152533"/>
    <rect id="Rectangle_256" data-name="Rectangle 256" width="4.092" height="157.632" transform="translate(1751.515 1.09) rotate(-15.381)" fill="#152533"/>
    <rect id="Rectangle_257" data-name="Rectangle 257" width="4.092" height="157.632" transform="translate(1751.515 1.09) rotate(-15.381)" fill="#152533"/>
    <rect id="Rectangle_258" data-name="Rectangle 258" width="4.093" height="157.632" transform="translate(1766.368 1.087) rotate(-15.374)" fill="#152533"/>
    <rect id="Rectangle_259" data-name="Rectangle 259" width="4.093" height="157.632" transform="translate(1766.368 1.087) rotate(-15.374)" fill="#152533"/>
    <rect id="Rectangle_260" data-name="Rectangle 260" width="4.092" height="157.632" transform="translate(1781.203 1.09) rotate(-15.381)" fill="#152533"/>
    <rect id="Rectangle_261" data-name="Rectangle 261" width="4.092" height="157.632" transform="translate(1781.203 1.09) rotate(-15.381)" fill="#152533"/>
    <rect id="Rectangle_262" data-name="Rectangle 262" width="4.092" height="157.632" transform="translate(1796.047 1.09) rotate(-15.381)" fill="#152533"/>
    <rect id="Rectangle_263" data-name="Rectangle 263" width="4.092" height="157.632" transform="translate(1796.047 1.09) rotate(-15.381)" fill="#152533"/>
    <rect id="Rectangle_264" data-name="Rectangle 264" width="4.092" height="157.632" transform="translate(1810.89 1.09) rotate(-15.381)" fill="#152533"/>
    <rect id="Rectangle_265" data-name="Rectangle 265" width="4.092" height="157.632" transform="translate(1810.89 1.09) rotate(-15.381)" fill="#152533"/>
    <rect id="Rectangle_266" data-name="Rectangle 266" width="4.092" height="157.632" transform="translate(1825.733 1.09) rotate(-15.381)" fill="#152533"/>
    <rect id="Rectangle_267" data-name="Rectangle 267" width="4.092" height="157.632" transform="translate(1825.733 1.09) rotate(-15.381)" fill="#152533"/>
    <rect id="Rectangle_268" data-name="Rectangle 268" width="4.092" height="157.632" transform="translate(1840.576 1.09) rotate(-15.381)" fill="#152533"/>
    <rect id="Rectangle_269" data-name="Rectangle 269" width="4.092" height="157.632" transform="translate(1840.576 1.09) rotate(-15.381)" fill="#152533"/>
    <rect id="Rectangle_270" data-name="Rectangle 270" width="4.094" height="157.632" transform="translate(1855.429 1.087) rotate(-15.374)" fill="#152533"/>
    <rect id="Rectangle_271" data-name="Rectangle 271" width="4.094" height="157.632" transform="translate(1855.429 1.087) rotate(-15.374)" fill="#152533"/>
    <rect id="Rectangle_272" data-name="Rectangle 272" width="4.092" height="157.632" transform="translate(1870.264 1.09) rotate(-15.381)" fill="#152533"/>
    <rect id="Rectangle_273" data-name="Rectangle 273" width="4.092" height="157.632" transform="translate(1870.264 1.09) rotate(-15.381)" fill="#152533"/>
    <rect id="Rectangle_274" data-name="Rectangle 274" width="4.092" height="157.632" transform="translate(1885.107 1.09) rotate(-15.381)" fill="#152533"/>
    <rect id="Rectangle_275" data-name="Rectangle 275" width="4.092" height="157.632" transform="translate(1885.107 1.09) rotate(-15.381)" fill="#152533"/>
    <rect id="Rectangle_276" data-name="Rectangle 276" width="4.092" height="157.632" transform="translate(1899.951 1.09) rotate(-15.381)" fill="#152533"/>
    <rect id="Rectangle_277" data-name="Rectangle 277" width="4.092" height="157.632" transform="translate(1899.951 1.09) rotate(-15.381)" fill="#152533"/>
    <rect id="Rectangle_278" data-name="Rectangle 278" width="4.092" height="157.632" transform="translate(1914.794 1.09) rotate(-15.381)" fill="#152533"/>
    <rect id="Rectangle_279" data-name="Rectangle 279" width="4.092" height="157.632" transform="translate(1914.794 1.09) rotate(-15.381)" fill="#152533"/>
    <rect id="Rectangle_280" data-name="Rectangle 280" width="4.092" height="157.632" transform="translate(1929.637 1.09) rotate(-15.381)" fill="#152533"/>
    <rect id="Rectangle_281" data-name="Rectangle 281" width="4.092" height="157.632" transform="translate(1929.637 1.09) rotate(-15.381)" fill="#152533"/>
    <rect id="Rectangle_282" data-name="Rectangle 282" width="4.092" height="157.632" transform="translate(1944.48 1.09) rotate(-15.381)" fill="#152533"/>
    <rect id="Rectangle_283" data-name="Rectangle 283" width="4.092" height="157.632" transform="translate(1944.48 1.09) rotate(-15.381)" fill="#152533"/>
    <rect id="Rectangle_284" data-name="Rectangle 284" width="4.092" height="157.632" transform="translate(1959.325 1.09) rotate(-15.381)" fill="#152533"/>
    <rect id="Rectangle_285" data-name="Rectangle 285" width="4.092" height="157.632" transform="translate(1959.325 1.09) rotate(-15.381)" fill="#152533"/>
    <rect id="Rectangle_286" data-name="Rectangle 286" width="4.092" height="157.632" transform="translate(1974.168 1.09) rotate(-15.381)" fill="#152533"/>
    <rect id="Rectangle_287" data-name="Rectangle 287" width="4.092" height="157.632" transform="translate(1974.168 1.09) rotate(-15.381)" fill="#152533"/>
    <rect id="Rectangle_288" data-name="Rectangle 288" width="4.092" height="157.632" transform="translate(1989.011 1.09) rotate(-15.381)" fill="#152533"/>
    <rect id="Rectangle_289" data-name="Rectangle 289" width="4.092" height="157.632" transform="translate(1989.011 1.09) rotate(-15.381)" fill="#152533"/>
    <rect id="Rectangle_290" data-name="Rectangle 290" width="4.092" height="157.632" transform="translate(2003.855 1.09) rotate(-15.381)" fill="#152533"/>
    <rect id="Rectangle_291" data-name="Rectangle 291" width="4.092" height="157.632" transform="translate(2003.855 1.09) rotate(-15.381)" fill="#152533"/>
    <rect id="Rectangle_292" data-name="Rectangle 292" width="4.092" height="157.632" transform="translate(2018.698 1.09) rotate(-15.381)" fill="#152533"/>
  </g>
</svg>
