<svg xmlns="http://www.w3.org/2000/svg" xmlns:xlink="http://www.w3.org/1999/xlink" width="100.089" height="146.714" viewBox="0 0 100.089 146.714">
  <defs>
    <radialGradient id="radial-gradient" cx="0.369" cy="0.332" r="0.618" gradientUnits="objectBoundingBox">
      <stop offset="0" stop-color="#fff" stop-opacity="0.314"/>
      <stop offset="0.19" stop-color="#fff" stop-opacity="0.251"/>
      <stop offset="0.6" stop-color="#6b6b6b" stop-opacity="0.125"/>
      <stop offset="1" stop-opacity="0.125"/>
    </radialGradient>
  </defs>
  <g id="Groupe_6" data-name="Groupe 6" transform="translate(-68.693 -44.524)">
    <path id="Tracé_451" data-name="Tracé 451" d="M-36.907.446a13.327,13.327,0,0,1-6.35-1.5,11.24,11.24,0,0,1-4.424-4.138,11.223,11.223,0,0,1-1.607-5.952,11.223,11.223,0,0,1,1.607-5.952,11.24,11.24,0,0,1,4.424-4.138,13.327,13.327,0,0,1,6.35-1.5,13.327,13.327,0,0,1,6.35,1.5,11.24,11.24,0,0,1,4.424,4.138,11.223,11.223,0,0,1,1.607,5.952,11.223,11.223,0,0,1-1.607,5.952A11.24,11.24,0,0,1-30.557-1.05,13.327,13.327,0,0,1-36.907.446Zm0-5.22a5.968,5.968,0,0,0,3.056-.8,5.724,5.724,0,0,0,2.164-2.244,6.794,6.794,0,0,0,.8-3.326,6.794,6.794,0,0,0-.8-3.326,5.724,5.724,0,0,0-2.164-2.244,5.968,5.968,0,0,0-3.056-.8,5.968,5.968,0,0,0-3.056.8,5.724,5.724,0,0,0-2.164,2.244,6.794,6.794,0,0,0-.8,3.326,6.794,6.794,0,0,0,.8,3.326A5.724,5.724,0,0,0-39.963-5.57,5.968,5.968,0,0,0-36.907-4.775Zm15.692-17.507h10.536a14.748,14.748,0,0,1,6.493,1.369A10.31,10.31,0,0,1,.207-17.029a10.942,10.942,0,0,1,1.56,5.889A10.942,10.942,0,0,1,.207-5.252,10.31,10.31,0,0,1-4.186-1.369,14.748,14.748,0,0,1-10.679,0H-21.215ZM-10.934-5.029a6.46,6.46,0,0,0,4.6-1.623A5.847,5.847,0,0,0-4.6-11.141a5.847,5.847,0,0,0-1.735-4.488,6.46,6.46,0,0,0-4.6-1.623h-3.979V-5.029ZM16.313.446a13.326,13.326,0,0,1-6.35-1.5A11.24,11.24,0,0,1,5.538-5.188a11.223,11.223,0,0,1-1.607-5.952,11.223,11.223,0,0,1,1.607-5.952,11.24,11.24,0,0,1,4.424-4.138,13.327,13.327,0,0,1,6.35-1.5,13.327,13.327,0,0,1,6.35,1.5,11.24,11.24,0,0,1,4.424,4.138,11.223,11.223,0,0,1,1.607,5.952,11.223,11.223,0,0,1-1.607,5.952A11.24,11.24,0,0,1,22.663-1.05,13.327,13.327,0,0,1,16.313.446Zm0-5.22a5.968,5.968,0,0,0,3.056-.8,5.724,5.724,0,0,0,2.164-2.244,6.794,6.794,0,0,0,.8-3.326,6.794,6.794,0,0,0-.8-3.326,5.724,5.724,0,0,0-2.164-2.244,5.968,5.968,0,0,0-3.056-.8,5.968,5.968,0,0,0-3.056.8,5.724,5.724,0,0,0-2.164,2.244,6.794,6.794,0,0,0-.8,3.326,6.794,6.794,0,0,0,.8,3.326A5.724,5.724,0,0,0,13.257-5.57,5.968,5.968,0,0,0,16.313-4.775ZM39.835.446a20.6,20.6,0,0,1-5.252-.668,12.918,12.918,0,0,1-4.138-1.782l2.069-4.647a13.388,13.388,0,0,0,3.469,1.592,13.207,13.207,0,0,0,3.883.6q3.629,0,3.629-1.814a1.5,1.5,0,0,0-1.034-1.416,19.024,19.024,0,0,0-3.326-.971,31.748,31.748,0,0,1-4.2-1.162,7.072,7.072,0,0,1-2.9-1.989,5.375,5.375,0,0,1-1.21-3.692,6.392,6.392,0,0,1,1.114-3.676,7.455,7.455,0,0,1,3.326-2.594,13.691,13.691,0,0,1,5.427-.955,19.144,19.144,0,0,1,4.329.493,13.257,13.257,0,0,1,3.756,1.448l-1.942,4.679a12.971,12.971,0,0,0-6.175-1.719,5.177,5.177,0,0,0-2.737.557,1.67,1.67,0,0,0-.859,1.448,1.436,1.436,0,0,0,1.019,1.337,18.417,18.417,0,0,0,3.279.923A30.713,30.713,0,0,1,45.581-12.4a7.283,7.283,0,0,1,2.9,1.973A5.271,5.271,0,0,1,49.7-6.748a6.267,6.267,0,0,1-1.114,3.629A7.594,7.594,0,0,1,45.247-.525,13.518,13.518,0,0,1,39.835.446Z" transform="translate(117.982 190.792)" fill="#fff"/>
    <g id="Blason_ville_fr_Odos_Hautes-Pyrénées" transform="translate(69.809 44.524)">
      <g id="layer3" transform="translate(0.191 0.191)">
        <path id="path2855" d="M49.487,108.691s49.3-18.549,49.3-65.69V.3H.191V43C.191,90.142,49.487,108.691,49.487,108.691Z" transform="translate(-0.191 -0.191)" fill="#fff" fill-rule="evenodd"/>
        <path id="path6458" d="M7.849,5.952v9.14l6.709.981L12.514,62.834l-3.669,2.4v5.713h1.471l-.7,6.848c14.579,20.52,37.591,29.179,37.591,29.179S70.217,98.316,84.8,77.8l-.7-6.848h1.471V65.234l-3.669-2.4L79.852,16.073l6.7-.981V5.952H80.781v4.572h-6.11V5.952H68.565v4.572h-6.1V5.952H56.36v4.572H50.255V5.952H44.15v4.572H38.045V5.952h-6.1v4.572H25.839V5.952H19.734v4.572h-6.11V5.952Z" transform="translate(2.091 1.526)" fill="none" stroke="#000" stroke-width="0.382" fill-rule="evenodd"/>
      </g>
      <g id="layer4" transform="translate(9.025 14.918)">
        <g id="g6267">
          <g id="g2406" transform="translate(15.197 47.818)">
            <path id="path2205" d="M33.713,36.951A46.111,46.111,0,0,0,40.9,44.705a3.793,3.793,0,0,0,1.909.555,4.442,4.442,0,0,0,1.613-.542,4.317,4.317,0,0,1,1.664-.542,1.673,1.673,0,0,1,.929.271l.452,1.123A1.164,1.164,0,0,1,46.318,46.6a1.313,1.313,0,0,1-.593-.219,1.283,1.283,0,0,0-.594-.194.722.722,0,0,0-.4.194,1.408,1.408,0,0,1-.478.3,1.8,1.8,0,0,1-.322.052c.043.009.088.019.129.026.466.076,1.4-.077,2.232-.077a1.1,1.1,0,0,1,.877.451l.1,1.316a1.35,1.35,0,0,1-.168.284,1.2,1.2,0,0,1-.942.452.887.887,0,0,1-.554-.18,1.2,1.2,0,0,1-.31-.374c-.076-.132-.134-.258-.194-.348s-.108-.129-.181-.129a3.425,3.425,0,0,0-.632.078,2.455,2.455,0,0,1-.452.038c.157.094.31.192.464.284a11.314,11.314,0,0,1,1.239.813,1.832,1.832,0,0,1,.684.877,1.022,1.022,0,0,1,.026.335l-.813,1.419a1.357,1.357,0,0,1-.864.361,1.034,1.034,0,0,1-.9-.413,3.145,3.145,0,0,1-.4-1.458,1.882,1.882,0,0,0-.477-1.264,2.33,2.33,0,0,0-1.019-.5c-.346-.081-.718-.111-1.148-.206a2.966,2.966,0,0,1-1.909-1.561,1.538,1.538,0,0,0-1.239,0,4.279,4.279,0,0,0-.58.542,1.177,1.177,0,0,1-.8.4,1.66,1.66,0,0,1-.967-.335,1.134,1.134,0,0,1-.478-.916c0-.061.009-.12.013-.181l.619-1.535a1.279,1.279,0,0,1,.916-.413,3.35,3.35,0,0,1,1.226.4c.3.143.542.3.8.452-1.568-1.665-4.093-3.522-5.78-5.393a1.311,1.311,0,0,0-.516-.258Z" transform="translate(2.77 -36.951)" fill="#e20909" stroke="#000" stroke-linecap="round" stroke-linejoin="round" stroke-width="0.223"/>
            <path id="path2404" d="M18.949,36.951a46.106,46.106,0,0,1-7.186,7.754,3.791,3.791,0,0,1-1.909.555,4.44,4.44,0,0,1-1.613-.542,4.318,4.318,0,0,0-1.664-.542,1.673,1.673,0,0,0-.929.271L5.2,45.57A1.164,1.164,0,0,0,6.344,46.6a1.314,1.314,0,0,0,.593-.219,1.283,1.283,0,0,1,.593-.194.721.721,0,0,1,.4.194,1.409,1.409,0,0,0,.477.3,1.811,1.811,0,0,0,.323.052c-.042.009-.088.019-.129.026-.466.076-1.4-.077-2.232-.077a1.1,1.1,0,0,0-.877.451l-.1,1.316a1.334,1.334,0,0,0,.168.284,1.2,1.2,0,0,0,.942.452A.888.888,0,0,0,7.053,49a1.2,1.2,0,0,0,.31-.374c.075-.132.134-.258.194-.348s.108-.129.181-.129a3.423,3.423,0,0,1,.632.078,2.459,2.459,0,0,0,.452.038c-.157.094-.309.192-.464.284a11.381,11.381,0,0,0-1.239.813,1.83,1.83,0,0,0-.684.877,1.026,1.026,0,0,0-.026.335l.813,1.419a1.359,1.359,0,0,0,.864.361,1.034,1.034,0,0,0,.9-.413,3.138,3.138,0,0,0,.4-1.458,1.882,1.882,0,0,1,.477-1.264,2.332,2.332,0,0,1,1.019-.5c.347-.081.719-.111,1.148-.206a2.966,2.966,0,0,0,1.909-1.561,1.538,1.538,0,0,1,1.239,0,4.281,4.281,0,0,1,.581.542,1.177,1.177,0,0,0,.8.4,1.661,1.661,0,0,0,.968-.335,1.135,1.135,0,0,0,.477-.916c0-.061-.009-.12-.013-.181l-.619-1.535a1.28,1.28,0,0,0-.916-.413,3.352,3.352,0,0,0-1.226.4c-.3.143-.542.3-.8.452C16,43.7,18.526,41.841,20.213,39.97a1.307,1.307,0,0,1,.516-.258Z" transform="translate(-5.195 -36.951)" fill="#e20909" stroke="#000" stroke-linecap="round" stroke-linejoin="round" stroke-width="0.223"/>
          </g>
          <g id="g12726" transform="translate(13.198 55.064)">
            <path id="path2396" d="M5.491,45.287a1.174,1.174,0,0,0-.71,2.168c-.166-.713.618-1.217,1.458-.594a.91.91,0,0,0,.335-1.174A1.551,1.551,0,0,0,5.491,45.287Zm51.259,0a1.551,1.551,0,0,0-1.084.4A.91.91,0,0,0,56,46.861c.839-.623,1.624-.119,1.458.594A1.174,1.174,0,0,0,56.75,45.287Zm-37.841.555a2.385,2.385,0,0,0-.929.258,1.093,1.093,0,0,0,.413,1.78.958.958,0,0,1,1.78.516c.835-.882.682-1.717.142-2.168A1.983,1.983,0,0,0,18.909,45.842Zm24.1,0a1.877,1.877,0,0,0-1.1.387c-.54.45-.68,1.285.155,2.168a.958.958,0,0,1,1.78-.516,1.093,1.093,0,0,0,.413-1.78A2.432,2.432,0,0,0,43.01,45.842ZM5.7,48.164a2.369,2.369,0,0,0-.245.013,1.635,1.635,0,0,0-1.226.645,1.263,1.263,0,0,0,.71,1.961c-.371-.8.368-1.638,1.51-1.109A.971.971,0,0,0,6.5,48.306,2.932,2.932,0,0,0,5.7,48.164Zm50.756.013a2.982,2.982,0,0,0-.71.129.971.971,0,0,0,.052,1.368c1.142-.528,1.868.31,1.5,1.109a1.268,1.268,0,0,0,.723-1.961A1.736,1.736,0,0,0,56.454,48.177ZM7.646,51.441A2.042,2.042,0,0,0,6.227,53.17,1.382,1.382,0,0,0,7.8,54.615a.954.954,0,0,1,.852-1.639A1.1,1.1,0,0,0,7.646,51.441Zm46.95,0a1.1,1.1,0,0,0-1.007,1.535.954.954,0,0,1,.852,1.639,1.382,1.382,0,0,0,1.574-1.445A2.042,2.042,0,0,0,54.6,51.441Z" transform="translate(-3.998 -45.286)" fill="#e20909" stroke="#000" stroke-linecap="round" stroke-linejoin="round" stroke-width="0.159"/>
          </g>
          <path id="path6047" d="M451.463,99.882c-1.515,3.765-5.726-.173-9.871,1.845-.863.718-.194,1.66-.177,2.568,1.445.864,3.187,1.536,4.645,2.387l.8,3.806.533-.31c.727,3.831-6.759,9.152-8.542,4.748-1.928,4.524,7.163,4.231,8.9.516a20.845,20.845,0,0,0,.388,3.638l.128,1.265a4.663,4.663,0,0,0-.541-.194,5.27,5.27,0,0,0-1.742-.219,10.234,10.234,0,0,0-3.588,1.1,9.714,9.714,0,0,1-3.353,1.058c-3.3.231-5.817-1.713-6.09-4.219-.161-1.457.8-2.449,1.767-3.316a18.015,18.015,0,0,0,1.329-1.251,1.68,1.68,0,0,0,.541-1.277,2.369,2.369,0,0,0-1.329-1.7,11.048,11.048,0,0,0-2.787-1.032,9.9,9.9,0,0,1-3.935-1.78,1.746,1.746,0,0,1-.685-1.329,2.349,2.349,0,0,1,1.02-1.613l.012-.013a.036.036,0,0,0,.012-.026s0-.009,0-.013,0-.019-.012-.026,0-.009-.012-.013a.238.238,0,0,0-.025-.013h-.025c-.008,0-.021.012-.029.013s-.012.01-.025.013a2.807,2.807,0,0,0-1.949,1.149,2.087,2.087,0,0,0-.1,1.819,4.349,4.349,0,0,0,2.324,2.361,18.661,18.661,0,0,1-7.353-3.445c-.012-.006-.017-.012-.029-.013h-.012a1.542,1.542,0,0,0-1.02.168,1.114,1.114,0,0,0-.487.735,3.271,3.271,0,0,0,.747,2.374,10.219,10.219,0,0,0,5.5,3.625c-3.319-.382-6.35-1.347-7.894-2.8l-.029-.013s0-.01-.012-.013h-.037c-.008,0-.008.012-.012.013h-.029c0,.008-.008.016-.012.026s-.021.008-.025.013.012.008.012.013.012.029.012.039c.058.509.632,1.381,2.027,2.258a14.9,14.9,0,0,0,4.979,1.832,33.528,33.528,0,0,1-3.588-.322,8.968,8.968,0,0,1-4.6-1.7.1.1,0,0,0-.012-.013h-.012v-.013a1.533,1.533,0,0,0-.917.078,1.136,1.136,0,0,0-.545.516,1.645,1.645,0,0,0,.054,1.509,8.291,8.291,0,0,0,4.116,3.122,13.241,13.241,0,0,0,3.559.9c-.954.092-2.011.149-3.043.155-2.126.01-4.182-.231-5.185-.929-.008,0-.008-.01-.017-.013h-.012a.125.125,0,0,0-.025,0h-.012s-.008.012-.012.013h-.012c-.008,0-.025.007-.029.013s-.008.016-.012.026v.013s.012.009.012.013a.16.16,0,0,0,.016.039c.326,1.017,1.61,1.752,3.6,2.077a20.387,20.387,0,0,0,5.718-.026,15.182,15.182,0,0,1-3.757,1.2,10.058,10.058,0,0,1-2.684.142,2.457,2.457,0,0,1-1.548-.568s0-.01-.012-.013,0-.009-.012-.013-.025,0-.037,0a.051.051,0,0,0-.025.013h-.029a.124.124,0,0,0-.012.013v.013a2.2,2.2,0,0,0,.31,2.7,5.373,5.373,0,0,0,3.121,1.123A17.677,17.677,0,0,0,425,124.3a27.355,27.355,0,0,1-7.989,2.864H417a.123.123,0,0,0-.012.013l-.012.013c-.008,0-.008.008-.012.013v.038s0,.01.012.013a.247.247,0,0,0,.025.013,4.02,4.02,0,0,0,2.593.335,16.955,16.955,0,0,0,3.575-.89,23.082,23.082,0,0,0,3.237-1.432,16.134,16.134,0,0,1-4.087,2.464,13.72,13.72,0,0,1-5.161,1.239h-.041a.051.051,0,0,0-.025.013l-.012.013v.013a.967.967,0,0,0,.231.9,2.594,2.594,0,0,0,1.02.684,7.738,7.738,0,0,0,3.431.413,17.631,17.631,0,0,0,5.1-1.29,23.336,23.336,0,0,1-7.279,4.309l-.012.013-.012.013v.013c-.008,0-.008.007-.012.013v.026a.1.1,0,0,0,.025.026l.012.013h.012a.117.117,0,0,0,.029.013h.025a17.236,17.236,0,0,0,8.464-3.574c-.537.606-1.106,1.221-1.717,1.806-2.234,2.145-4.888,3.988-7.328,4.425a.107.107,0,0,0-.037.013s.012.009.012.013a.93.93,0,0,0-.363.761,1.021,1.021,0,0,0,.479.684,4.727,4.727,0,0,0,2.865.516c3.092-.217,6.164-2.142,8.695-4.413a35.39,35.39,0,0,1-8.166,7.935c-.008,0-.008.021-.012.026a.035.035,0,0,0-.012.026s0,.009,0,.013,0,.009,0,.013,0,.01.012.013v.013s.017,0,.025,0,.012.012.025.013h.029c.012,0,.021-.012.037-.013a6.418,6.418,0,0,0,2.956-1.3,31.385,31.385,0,0,0,3.716-3.122c.822-.791,1.647-1.638,2.448-2.5a27.394,27.394,0,0,1-6.5,7.948,10.661,10.661,0,0,1-2.63,1.471,3.243,3.243,0,0,0-.735.361.565.565,0,0,0-.26.529c.041.374.458.7,1.032.929a4.874,4.874,0,0,0,2.089.31c2.518-.176,5.425-1.853,7.886-3.974a34.01,34.01,0,0,0,5.817-7.057,33.357,33.357,0,0,0,2.518-4.645,22.748,22.748,0,0,1-1.651,5.87c-.434.908-1.338,2.658-1.73,3.419a4.965,4.965,0,0,1-.826.967c-.157.16-.306.308-.413.439s-.194.242-.182.348a.976.976,0,0,0,.491.748,2.3,2.3,0,0,0,1.445.219,3.931,3.931,0,0,0,1.482-.568,18.869,18.869,0,0,0,2.106-1.432c2.452-1.876,5.02-5.75,5.557-12.347.128,1.149.219,2.478.235,3.716a12.037,12.037,0,0,1-.388,3.845v.039a.1.1,0,0,0,.025.026l.012.013h.012l.029.013h.012s.008-.012.012-.013a2.214,2.214,0,0,0,1.354-1.419,8.378,8.378,0,0,0,.479-2.542c.008-.177.008-.35.012-.529a24.393,24.393,0,0,1,1.367,2.477c.132.638.24,1.212.26,1.432l-.388,1.523a3.3,3.3,0,0,1-.248.322,10.741,10.741,0,0,1-1.21,1.2,17.328,17.328,0,0,0-2.646,2.568,9.271,9.271,0,0,0-.632,1.251,16.349,16.349,0,0,1-.879,1.716,3.7,3.7,0,0,1-3.018,2.155,1.519,1.519,0,0,1-1.057-.348,1.081,1.081,0,0,1-.334-.877v-.026l-.012-.013a.042.042,0,0,0-.017-.013.048.048,0,0,0-.025-.013H440.2l-.012.013h-.012a1.453,1.453,0,0,0-.376,1.651,1.91,1.91,0,0,0,1.924,1.071,3.184,3.184,0,0,0,1.92-.49l1.784,2.761c.239-.081.863-.334,1.173-.426a3.257,3.257,0,0,0,1.573-.839,3.2,3.2,0,0,0,.248.516,2.032,2.032,0,0,0,1.548,1.019h.025a.072.072,0,0,0,.025-.013l.012-.013v-.052a7.13,7.13,0,0,1,.1-3.948,5.483,5.483,0,0,1,1.949-2.168,9.623,9.623,0,0,1-.091,2.206,17.085,17.085,0,0,1-.888,3.613,7.4,7.4,0,0,1-1.771,2.877,2.348,2.348,0,0,1-2.618.477h-.037c-.008,0-.012.008-.012.013h-.017v.013l-.012.013v.039a2.661,2.661,0,0,0,2.684,1.987,3.273,3.273,0,0,0,2.428-1.084l.062-.064a5.041,5.041,0,0,1-.941,2.025,4.183,4.183,0,0,1-3.48,1.523,3.747,3.747,0,0,0-3.084,1.135,3,3,0,0,0-.57,1.6,2.583,2.583,0,0,0,.57,1.883.048.048,0,0,0,.025.013h.037a.063.063,0,0,0,.029-.013c0-.007.008-.016.012-.026v-.013a1.624,1.624,0,0,1,.681-1.29,3.528,3.528,0,0,1,2.064-.49,6.015,6.015,0,0,0,4.261-1.69,11.106,11.106,0,0,1-1.808,2.9,6.325,6.325,0,0,1-2.8,1.923,2.5,2.5,0,0,1-1.263.077,1.257,1.257,0,0,1-.855-.619l-.012-.013-.012-.013h-.025a.793.793,0,0,0-.723.245,1.231,1.231,0,0,0-.272.736,2.079,2.079,0,0,0,.632,1.638,2.783,2.783,0,0,0,1.474.581,2.983,2.983,0,0,0,1.185-.155c-3.15,2.072-6.478.048-6.478-2.232a2.819,2.819,0,0,1,.533-1.6,1.22,1.22,0,0,1,1.391-.529l.012.013h.012l.012-.013h.017l.012-.013.012-.013v-.052c-.008-.017-.033-.022-.041-.039a1.579,1.579,0,0,0-1.445-1.019,3.191,3.191,0,0,0-2.448,1.3,4.734,4.734,0,0,0-1.007,2.9,5.168,5.168,0,0,0,1.47,3.677,6.919,6.919,0,0,0,8.373.555c-2.081,4.2,1.594,7.153,3.988,4.761-2.267-.23-1.734-2.876-.091-3.961a6.855,6.855,0,0,0,2.927-4.09c-.178,3.5-.355,6.778-2.023,9.16-.5.714.454,1.11,1.651,1.11-.012,1.924,3.357,2,3.406,0,1.193,0,2.151-.4,1.651-1.11-1.672-2.382-1.845-5.662-2.027-9.16a6.845,6.845,0,0,0,2.931,4.09c1.639,1.085,2.176,3.731-.091,3.961,2.39,2.393,6.069-.559,3.984-4.761a6.919,6.919,0,0,0,8.373-.555,5.172,5.172,0,0,0,1.474-3.677,4.734,4.734,0,0,0-1.007-2.9,3.192,3.192,0,0,0-2.452-1.3,1.587,1.587,0,0,0-1.445,1.019c-.008.017-.033.021-.037.039v.052l.012.013.012.013h.012l.012.013h.012a.042.042,0,0,0,.017-.013,1.222,1.222,0,0,1,1.391.529,2.814,2.814,0,0,1,.528,1.6c0,2.28-3.324,4.3-6.478,2.232a3,3,0,0,0,1.189.155,2.757,2.757,0,0,0,1.47-.581,2.065,2.065,0,0,0,.632-1.638,1.228,1.228,0,0,0-.268-.736.793.793,0,0,0-.723-.245h-.029l-.012.013-.012.013a1.259,1.259,0,0,1-.85.619,2.5,2.5,0,0,1-1.263-.077,6.3,6.3,0,0,1-2.8-1.923,10.893,10.893,0,0,1-1.808-2.9,6.005,6.005,0,0,0,4.257,1.69,3.519,3.519,0,0,1,2.064.49,1.639,1.639,0,0,1,.685,1.29v.013a.034.034,0,0,0,.012.026.072.072,0,0,0,.025.013h.041a.071.071,0,0,0,.025-.013,2.579,2.579,0,0,0,.566-1.883,3.035,3.035,0,0,0-.566-1.6,3.752,3.752,0,0,0-3.084-1.135,4.192,4.192,0,0,1-3.485-1.523,5.154,5.154,0,0,1-.941-2.025c.021.022.045.043.066.064a3.257,3.257,0,0,0,2.424,1.084,2.657,2.657,0,0,0,2.684-1.987v-.039l-.012-.013v-.013h-.012l-.012-.013h-.037a2.353,2.353,0,0,1-2.622-.477,7.391,7.391,0,0,1-1.767-2.877,17.1,17.1,0,0,1-.892-3.613,9.583,9.583,0,0,1-.087-2.206,5.471,5.471,0,0,1,1.944,2.168,7.054,7.054,0,0,1,.1,3.948v.052a.041.041,0,0,0,.017.013.036.036,0,0,0,.025.013h.025a2.039,2.039,0,0,0,1.548-1.019,3.561,3.561,0,0,0,.244-.516,3.29,3.29,0,0,0,1.577.839c.305.092.929.345,1.172.426l1.779-2.761a3.2,3.2,0,0,0,1.924.49,1.91,1.91,0,0,0,1.924-1.071,1.466,1.466,0,0,0-.376-1.651h-.012l-.012-.013H470.8a.071.071,0,0,0-.025.013l-.012.013-.012.013v.026a1.081,1.081,0,0,1-.334.877,1.523,1.523,0,0,1-1.061.348,3.707,3.707,0,0,1-3.018-2.155,16.286,16.286,0,0,1-.875-1.716,10.342,10.342,0,0,0-.632-1.251,17.518,17.518,0,0,0-2.646-2.568,11.158,11.158,0,0,1-1.214-1.2,4.041,4.041,0,0,1-.244-.322l-.388-1.523c.016-.22.124-.794.26-1.432a24.392,24.392,0,0,1,1.367-2.477c0,.179,0,.352.012.529a8.372,8.372,0,0,0,.479,2.542,2.205,2.205,0,0,0,1.354,1.419s0,.013.012.013h.012a.254.254,0,0,0,.025-.013h.012c.008,0,.008-.008.012-.013s.025-.017.029-.026v-.039a11.925,11.925,0,0,1-.388-3.845c.016-1.238.107-2.567.231-3.716.537,6.6,3.1,10.472,5.561,12.347a18.493,18.493,0,0,0,2.1,1.432,3.946,3.946,0,0,0,1.486.568,2.308,2.308,0,0,0,1.445-.219.986.986,0,0,0,.491-.748c.008-.107-.074-.218-.182-.348s-.256-.279-.413-.439a4.827,4.827,0,0,1-.826-.967c-.392-.762-1.3-2.511-1.73-3.419a22.425,22.425,0,0,1-1.651-5.87,33.315,33.315,0,0,0,2.514,4.645,34.02,34.02,0,0,0,5.821,7.057c2.457,2.121,5.367,3.8,7.882,3.974a4.874,4.874,0,0,0,2.089-.31c.574-.229.991-.555,1.032-.929a.57.57,0,0,0-.256-.529,3.43,3.43,0,0,0-.735-.361,10.746,10.746,0,0,1-2.634-1.471,27.524,27.524,0,0,1-6.5-7.948c.8.865,1.631,1.712,2.452,2.5a31.063,31.063,0,0,0,3.716,3.122,6.4,6.4,0,0,0,2.956,1.3c.012,0,.025.012.037.013h.025c.012,0,.016-.007.029-.013s.021,0,.025,0v-.013a.121.121,0,0,0,.012-.013v-.026c0-.01-.008-.018-.012-.026s-.008-.021-.012-.026a35.307,35.307,0,0,1-8.166-7.935c2.527,2.271,5.6,4.2,8.695,4.413a4.727,4.727,0,0,0,2.865-.516,1,1,0,0,0,.475-.684.925.925,0,0,0-.359-.761s.012-.009.012-.013a.131.131,0,0,0-.041-.013c-2.44-.437-5.095-2.281-7.328-4.425-.607-.585-1.181-1.2-1.713-1.806a17.2,17.2,0,0,0,8.464,3.574h.025a.088.088,0,0,0,.025-.013h.012c.008,0,.008-.008.017-.013a.1.1,0,0,0,.025-.026V134.1a.114.114,0,0,0-.012-.013v-.013l-.012-.013a.045.045,0,0,0-.017-.013,23.276,23.276,0,0,1-7.275-4.309,17.606,17.606,0,0,0,5.095,1.29,7.765,7.765,0,0,0,3.435-.413,2.576,2.576,0,0,0,1.016-.684.98.98,0,0,0,.235-.9v-.013l-.012-.013a.1.1,0,0,0-.029-.013h-.037a13.72,13.72,0,0,1-5.161-1.239,16.082,16.082,0,0,1-4.091-2.464,23.129,23.129,0,0,0,3.241,1.432,16.922,16.922,0,0,0,3.571.89,4.016,4.016,0,0,0,2.593-.335l.029-.013a.129.129,0,0,0,.012-.013v-.038a.126.126,0,0,0-.012-.013l-.012-.013a.042.042,0,0,0-.016-.013h-.012a27.337,27.337,0,0,1-7.985-2.864,17.658,17.658,0,0,0,5.289.387,5.351,5.351,0,0,0,3.121-1.123,2.189,2.189,0,0,0,.31-2.7s0-.009,0-.013,0-.009-.012-.013h-.025a.051.051,0,0,0-.025-.013c-.012,0-.029-.006-.041,0l-.012.013a.1.1,0,0,0-.012.013,2.457,2.457,0,0,1-1.548.568,10.065,10.065,0,0,1-2.684-.142,15.21,15.21,0,0,1-3.753-1.2,20.36,20.36,0,0,0,5.714.026c1.99-.325,3.27-1.06,3.6-2.077l.012-.039s.012-.009.012-.013v-.013a.035.035,0,0,0-.012-.026c0-.005-.021-.009-.025-.013h-.012c-.008,0-.008-.013-.012-.013H495.9a.17.17,0,0,0-.029,0h-.012a.092.092,0,0,0-.012.013c-1,.7-3.063.939-5.186.929-1.036-.005-2.093-.062-3.047-.155a13.272,13.272,0,0,0,3.563-.9,8.291,8.291,0,0,0,4.116-3.122,1.645,1.645,0,0,0,.05-1.509,1.127,1.127,0,0,0-.541-.516,1.536,1.536,0,0,0-.916-.078v.013h-.012c-.008,0-.008.008-.012.013a8.984,8.984,0,0,1-4.607,1.7,33.436,33.436,0,0,1-3.588.322,14.958,14.958,0,0,0,4.983-1.832c1.391-.877,1.965-1.748,2.023-2.258a.149.149,0,0,0,.012-.039s.016-.009.016-.013-.021-.009-.029-.013a.035.035,0,0,0-.012-.026h-.025s-.008-.013-.012-.013h-.041a.09.09,0,0,0-.012.013s-.021.008-.025.013c-1.548,1.453-4.575,2.418-7.894,2.8a10.252,10.252,0,0,0,5.5-3.625,3.31,3.31,0,0,0,.747-2.374,1.134,1.134,0,0,0-.491-.735,1.542,1.542,0,0,0-1.02-.168h-.012a.045.045,0,0,0-.025.013,18.688,18.688,0,0,1-7.353,3.445,4.326,4.326,0,0,0,2.32-2.361,2.073,2.073,0,0,0-.1-1.819,2.789,2.789,0,0,0-1.949-1.149c-.012,0-.012-.01-.025-.013s-.021-.013-.025-.013h-.025l-.029.013-.012.013c-.008.007-.008.017-.012.026v.013l.012.026.012.013a2.349,2.349,0,0,1,1.02,1.613,1.742,1.742,0,0,1-.681,1.329,9.96,9.96,0,0,1-3.935,1.78,11.049,11.049,0,0,0-2.787,1.032,2.349,2.349,0,0,0-1.329,1.7,1.651,1.651,0,0,0,.541,1.277,17.241,17.241,0,0,0,1.329,1.251c.97.867,1.924,1.859,1.767,3.316-.272,2.505-2.791,4.449-6.09,4.219a9.708,9.708,0,0,1-3.357-1.058,10.184,10.184,0,0,0-3.584-1.1,5.257,5.257,0,0,0-1.742.219,4.406,4.406,0,0,0-.541.194l.128-1.265a21.247,21.247,0,0,0,.388-3.638c1.734,3.715,10.829,4.008,8.9-.516-1.788,4.4-9.273-.917-8.542-4.748l.529.31.8-3.806c1.453-.851,3.2-1.523,4.645-2.387.012-.908.685-1.85-.182-2.568-4.141-2.018-8.356,1.92-9.867-1.845-.685.849-1,2.347,1,2.851-1.874.294-1.255,3.726-4.438,2.529.673,1.459,1.7,1.511,3.266.374-1.532,1.26-.772,4.8-3.443,3.845a1.534,1.534,0,0,0,2.5.8c-1.1.874-.037,5.317-1.911,2.89a1.622,1.622,0,0,0,1.408,1.909c-.177,1.485-.855,2.571-2.428,2.774a3.012,3.012,0,0,1-2.448-2.774,1.617,1.617,0,0,0,1.4-1.909c-1.874,2.427-.805-2.016-1.907-2.89a1.534,1.534,0,0,0,2.5-.8c-2.671.959-1.912-2.584-3.443-3.845,1.561,1.137,2.593,1.084,3.262-.374-3.179,1.2-2.56-2.234-4.438-2.529C452.462,102.228,452.144,100.731,451.463,99.882Z" transform="translate(-415.053 -99.882)" fill="#e20909" stroke="#000" stroke-linecap="round" stroke-linejoin="round" stroke-width="0.223"/>
          <g id="g6050" transform="translate(4.555 9.747)">
            <g id="g6052">
              <path id="path6054" d="M422.937,107.392a.132.132,0,0,0-.076.044.089.089,0,0,0-.013.027.087.087,0,0,0-.011.053.1.1,0,0,0,.02.038.122.122,0,0,0,.035.024,14.082,14.082,0,0,0,5.8,2.132l.352-.335a15.059,15.059,0,0,1-5.993-1.951l-.017-.012A.148.148,0,0,0,423,107.4.164.164,0,0,0,422.937,107.392Zm-3.9,5.492a.129.129,0,0,0-.076.044.2.2,0,0,0-.025.066.1.1,0,0,0,.041.075c1.665,1.189,4.433,1.71,7.707,1.339l.428-.38c-3.223.366-6.385.008-7.957-1.114l-.018-.012a.166.166,0,0,0-.034-.011A.157.157,0,0,0,419.037,112.885Zm7.095,5.811a10.473,10.473,0,0,1-3.968,1.611,13.662,13.662,0,0,1-3.45.28.158.158,0,0,0-.048,0,.14.14,0,0,0-.077.032.088.088,0,0,0-.024.079.1.1,0,0,0,.02.038.14.14,0,0,0,.1.045,13.509,13.509,0,0,0,3.6-.2,10.736,10.736,0,0,0,3.978-1.522Zm3.368,3.416-.526.076a13.115,13.115,0,0,1-7.094,4.408.1.1,0,0,0-.015.014.134.134,0,0,0-.031.015.11.11,0,0,0-.015.014.09.09,0,0,0-.025.066.1.1,0,0,0,.041.075.146.146,0,0,0,.034.01.151.151,0,0,0,.05.009.158.158,0,0,0,.048,0,13.9,13.9,0,0,0,7.571-4.493Zm2.756,2.553c-1.657,3.235-4.389,5.559-7.236,7.85a.107.107,0,0,0-.015.014.088.088,0,0,0-.024.08.09.09,0,0,0,.02.037.1.1,0,0,0,.019.025.247.247,0,0,0,.147.015.115.115,0,0,0,.029-.028c2.848-2.291,5.833-4.551,7.513-7.83Zm10.547.518a16.016,16.016,0,0,1-2.538,9.956.08.08,0,0,0,0,.013.087.087,0,0,0-.01.053.1.1,0,0,0,.02.038.125.125,0,0,0,.07.047.218.218,0,0,0,.111-.021.16.16,0,0,0,.031-.015.1.1,0,0,0,.013-.027,16.329,16.329,0,0,0,2.753-10.061Zm-5.935.649c-.792,5.076-3.674,8.721-7.8,13.082a.088.088,0,0,0-.024.079.094.094,0,0,0,.02.038.111.111,0,0,0,.019.025.142.142,0,0,0,.051.022.156.156,0,0,0,.048,0,.143.143,0,0,0,.078-.031l.015-.014c3.321-3.2,7.454-7.739,8.126-13.183Z" transform="translate(-418.562 -107.392)"/>
              <path id="path6056" d="M425.665,114.775c-2.438,1.406-.7,3.679,1.329,2.329" transform="translate(-416.802 -105.192)" fill="none" stroke="#000" stroke-linecap="round" stroke-linejoin="round" stroke-width="0.159"/>
              <path id="path6058" d="M426.062,116.8c-1.96,1.96.608,3.7,2.179,1.9" transform="translate(-416.539 -104.588)" fill="none" stroke="#000" stroke-linecap="round" stroke-linejoin="round" stroke-width="0.159"/>
              <path id="path6060" d="M427.542,118.125c-1.624,2.148,1.206,3.608,2.469,1.654" transform="translate(-416.033 -104.194)" fill="none" stroke="#000" stroke-linecap="round" stroke-linejoin="round" stroke-width="0.159"/>
              <path id="path6062" d="M429.429,119.134c-2.052,2.431,1.455,4.05,3.055,1.841" transform="translate(-415.512 -103.893)" fill="none" stroke="#000" stroke-linecap="round" stroke-linejoin="round" stroke-width="0.159"/>
              <path id="path6064" d="M426.52,112.284c-3.344.727-2.724,3.812-.141,3.01" transform="translate(-416.876 -105.934)" fill="none" stroke="#000" stroke-linecap="round" stroke-linejoin="round" stroke-width="0.159"/>
              <path id="path6066" d="M426.242,112.78c-1.883.094-1.107-2.26.738-2.157" transform="translate(-416.598 -106.43)" fill="none" stroke="#000" stroke-linecap="round" stroke-linejoin="round" stroke-width="0.159"/>
              <path id="path6068" d="M428.05,109c-1.548-.647-2.866,1.531-1.333,2.146" transform="translate(-416.336 -106.949)" fill="none" stroke="#000" stroke-linecap="round" stroke-linejoin="round" stroke-width="0.159"/>
              <path id="path6070" d="M432.057,119.769c-2.052,2.431,1.455,4.05,3.055,1.841" transform="translate(-414.729 -103.704)" fill="none" stroke="#000" stroke-linecap="round" stroke-linejoin="round" stroke-width="0.159"/>
              <path id="path6072" d="M434.848,119.715c-1.906,2.421,1.392,4.054,2.875,1.854" transform="translate(-413.883 -103.72)" fill="none" stroke="#000" stroke-linecap="round" stroke-linejoin="round" stroke-width="0.159"/>
              <path id="path6074" d="M437.313,119.435c-1.623,2.124.891,3.594,2.6,2.082" transform="translate(-413.132 -103.804)" fill="none" stroke="#000" stroke-linecap="round" stroke-linejoin="round" stroke-width="0.159"/>
              <path id="path6076" d="M439.255,119.3c-1.556,2.037.69,3.471,2.38,2.254" transform="translate(-412.553 -103.844)" fill="none" stroke="#000" stroke-linecap="round" stroke-linejoin="round" stroke-width="0.159"/>
            </g>
          </g>
          <g id="g6078" transform="translate(20.512 2.447)">
            <path id="path6080" d="M-6.712-13.094A3.264,3.264,0,0,0-4.43-12.051c1.51.065,3.852-1.815,5.649-1.738A5.466,5.466,0,0,1,4.593-12.3l-.317,1.848a4.543,4.543,0,0,0-3.057-2.009c-1.665-.072-3.7,1.6-5.444,1.528A2.876,2.876,0,0,1-6.712-13.094Z" transform="translate(6.712 18.429)" fill="#e20909" stroke="#000" stroke-linecap="round" stroke-linejoin="round" stroke-width="0.159"/>
            <path id="path6082" d="M-1.681-16.8a2.628,2.628,0,0,0-2.462,4.313A2.2,2.2,0,0,1-.7-13.838c1.906-.217,4.436.278,4.326,3-2-.065-5.226.033-5.714,2.312,2.41-.945,6.684.943,6.6-1.457-.188.436-.294.322-.39.2.2-.853,1.228-2.047.438-2.657C2.4-14.1,1.233-14.727-1.681-16.8Z" transform="translate(7.274 17.519)" fill="#e20909" stroke="#000" stroke-width="0.159" fill-rule="evenodd"/>
            <path id="path6084" d="M-2.379-16.668a21,21,0,0,0,6.192-.7A6.413,6.413,0,0,0,.677-16.211c-.332.368-.878.729-1.267.5-.289-.166-.494-.609-.752-.743s-.567.043-1.037-.219Z" transform="translate(8.002 17.365)" fill="#fff" stroke="#000" stroke-width="0.159" fill-rule="evenodd"/>
          </g>
          <g id="g6113" transform="translate(47.286 9.747)">
            <g id="g6115">
              <path id="path6117" d="M475.193,107.392a.132.132,0,0,1,.076.044.089.089,0,0,1,.013.027.086.086,0,0,1,.01.053.093.093,0,0,1-.02.038.12.12,0,0,1-.035.024,14.081,14.081,0,0,1-5.8,2.132l-.352-.335a15.059,15.059,0,0,0,5.993-1.951l.017-.012a.148.148,0,0,1,.034-.011A.164.164,0,0,1,475.193,107.392Zm3.9,5.492a.13.13,0,0,1,.076.044.207.207,0,0,1,.025.066.1.1,0,0,1-.041.075c-1.665,1.189-4.433,1.71-7.707,1.339l-.428-.38c3.223.366,6.385.008,7.957-1.114l.017-.012a.168.168,0,0,1,.034-.011A.157.157,0,0,1,479.093,112.885ZM472,118.7a10.473,10.473,0,0,0,3.968,1.611,13.662,13.662,0,0,0,3.45.28.159.159,0,0,1,.048,0,.14.14,0,0,1,.077.032.088.088,0,0,1,.024.079.1.1,0,0,1-.02.038.141.141,0,0,1-.1.045,13.509,13.509,0,0,1-3.6-.2,10.735,10.735,0,0,1-3.978-1.522Zm-3.368,3.416.526.076a13.115,13.115,0,0,0,7.094,4.408.107.107,0,0,1,.015.014.137.137,0,0,1,.031.015.11.11,0,0,1,.015.014.09.09,0,0,1,.025.066.1.1,0,0,1-.041.075.145.145,0,0,1-.034.01.151.151,0,0,1-.05.009.159.159,0,0,1-.048,0,13.9,13.9,0,0,1-7.571-4.493Zm-2.756,2.553c1.657,3.235,4.389,5.559,7.236,7.85l.015.014a.088.088,0,0,1,.024.08.091.091,0,0,1-.02.037.093.093,0,0,1-.019.025.247.247,0,0,1-.147.015.115.115,0,0,1-.029-.028c-2.848-2.291-5.833-4.551-7.513-7.83Zm-10.547.518a16.015,16.015,0,0,0,2.538,9.956.083.083,0,0,1,0,.013.087.087,0,0,1,.01.053.1.1,0,0,1-.02.038.125.125,0,0,1-.07.047.219.219,0,0,1-.111-.021.158.158,0,0,1-.031-.015.1.1,0,0,1-.013-.027,16.328,16.328,0,0,1-2.753-10.061Zm5.935.649c.792,5.076,3.674,8.721,7.8,13.082a.088.088,0,0,1,.024.079.1.1,0,0,1-.02.038.112.112,0,0,1-.019.025.142.142,0,0,1-.051.022.157.157,0,0,1-.048,0,.143.143,0,0,1-.078-.031l-.015-.014c-3.321-3.2-7.454-7.739-8.126-13.183Z" transform="translate(-450.485 -107.392)"/>
              <path id="path6119" d="M467.368,114.775c2.438,1.406.7,3.679-1.329,2.329" transform="translate(-447.149 -105.192)" fill="none" stroke="#000" stroke-linecap="round" stroke-linejoin="round" stroke-width="0.159"/>
              <path id="path6121" d="M467.054,116.8c1.96,1.96-.608,3.7-2.179,1.9" transform="translate(-447.495 -104.588)" fill="none" stroke="#000" stroke-linecap="round" stroke-linejoin="round" stroke-width="0.159"/>
              <path id="path6123" d="M465.591,118.125c1.624,2.148-1.206,3.608-2.469,1.654" transform="translate(-448.018 -104.194)" fill="none" stroke="#000" stroke-linecap="round" stroke-linejoin="round" stroke-width="0.159"/>
              <path id="path6125" d="M463.87,119.134c2.052,2.431-1.455,4.05-3.055,1.841" transform="translate(-448.705 -103.893)" fill="none" stroke="#000" stroke-linecap="round" stroke-linejoin="round" stroke-width="0.159"/>
              <path id="path6127" d="M466.461,112.284c3.344.727,2.724,3.812.141,3.01" transform="translate(-447.023 -105.934)" fill="none" stroke="#000" stroke-linecap="round" stroke-linejoin="round" stroke-width="0.159"/>
              <path id="path6129" d="M466.631,112.78c1.883.094,1.107-2.26-.738-2.157" transform="translate(-447.192 -106.43)" fill="none" stroke="#000" stroke-linecap="round" stroke-linejoin="round" stroke-width="0.159"/>
              <path id="path6131" d="M464.866,109c1.548-.647,2.866,1.531,1.333,2.146" transform="translate(-447.498 -106.949)" fill="none" stroke="#000" stroke-linecap="round" stroke-linejoin="round" stroke-width="0.159"/>
              <path id="path6133" d="M461.242,119.769c2.052,2.431-1.455,4.05-3.055,1.841" transform="translate(-449.488 -103.704)" fill="none" stroke="#000" stroke-linecap="round" stroke-linejoin="round" stroke-width="0.159"/>
              <path id="path6135" d="M458.4,119.715c1.906,2.421-1.392,4.054-2.875,1.854" transform="translate(-450.282 -103.72)" fill="none" stroke="#000" stroke-linecap="round" stroke-linejoin="round" stroke-width="0.159"/>
              <path id="path6137" d="M455.857,119.435c1.623,2.124-.891,3.594-2.6,2.082" transform="translate(-450.955 -103.804)" fill="none" stroke="#000" stroke-linecap="round" stroke-linejoin="round" stroke-width="0.159"/>
              <path id="path6139" d="M453.865,119.3c1.556,2.037-.69,3.471-2.38,2.254" transform="translate(-451.485 -103.844)" fill="none" stroke="#000" stroke-linecap="round" stroke-linejoin="round" stroke-width="0.159"/>
            </g>
          </g>
          <g id="g6141" transform="translate(60.41 11.442) rotate(180)">
            <path id="path6143" d="M0,2.638A3.264,3.264,0,0,1,2.281,1.6c1.51-.065,3.852,1.815,5.649,1.738a5.466,5.466,0,0,0,3.375-1.485L10.988,0A4.543,4.543,0,0,1,7.931,2.009c-1.665.072-3.7-1.6-5.444-1.528A2.876,2.876,0,0,0,0,2.638Z" transform="translate(0 1.021)" fill="#e20909" stroke="#000" stroke-linecap="round" stroke-linejoin="round" stroke-width="0.159"/>
            <path id="path6145" d="M3.144,8.279A2.628,2.628,0,0,1,.682,3.967a2.2,2.2,0,0,0,3.44,1.347c1.906.217,4.436-.278,4.326-3-2,.065-5.226-.033-5.714-2.312,2.41.945,6.684-.943,6.6,1.457-.188-.436-.294-.322-.39-.2.2.853,1.228,2.047.438,2.657C7.228,5.573,6.057,6.2,3.144,8.279Z" transform="translate(2.45)" fill="#e20909" stroke="#000" stroke-width="0.159" fill-rule="evenodd"/>
            <path id="path6147" d="M0,1.031a21,21,0,0,1,6.192.7A6.413,6.413,0,0,1,3.055.574c-.332-.368-.878-.729-1.267-.5C1.5.235,1.294.678,1.037.812S.47.769,0,1.031Z" transform="translate(5.624 7.267)" fill="#fff" stroke="#000" stroke-width="0.159" fill-rule="evenodd"/>
          </g>
          <path id="path2361" d="M446.382,135.734v8.051" transform="translate(-405.719 -89.201)" fill="#f8e504" stroke="#000" stroke-linecap="round" stroke-linejoin="round" stroke-width="0.223"/>
          <path id="path2957" d="M446.271,159.886v-7.64" transform="translate(-405.752 -84.281)" fill="none" stroke="#000" stroke-linecap="round" stroke-linejoin="round" stroke-width="0.223"/>
          <path id="path2365" d="M437.164,157.2c5.574,0,9-7.633,10.107-11.8" transform="translate(-408.466 -86.321)" fill="none" stroke="#000" stroke-linecap="round" stroke-linejoin="round" stroke-width="0.223"/>
          <path id="path2368" d="M457.612,157.2c-5.578,0-9-7.633-10.107-11.8" transform="translate(-405.385 -86.321)" fill="none" stroke="#000" stroke-linecap="round" stroke-linejoin="round" stroke-width="0.223"/>
        </g>
      </g>
      <g id="layer2" transform="translate(0.191 0.191)">
        <path id="path2875" d="M49.487,108.691s49.3-18.549,49.3-65.69V.3H.191V43C.191,90.142,49.487,108.691,49.487,108.691Z" transform="translate(-0.191 -0.191)" fill-rule="evenodd" fill="url(#radial-gradient)"/>
      </g>
      <g id="layer1" transform="translate(0.191 0.191)">
        <path id="path1411" d="M49.487,108.691S.191,90.142.191,43V.3H98.782V43C98.782,90.142,49.487,108.691,49.487,108.691Z" transform="translate(-0.191 -0.191)" fill="none" stroke="#000" stroke-width="0.382" fill-rule="evenodd"/>
      </g>
    </g>
  </g>
</svg>
