<svg xmlns="http://www.w3.org/2000/svg" xmlns:xlink="http://www.w3.org/1999/xlink" width="86.413" height="155.228" viewBox="0 0 86.413 155.228">
  <defs>
    <clipPath id="clip-path">
      <rect id="Rectangle_10" data-name="Rectangle 10" width="70.614" height="148.412" fill="none"/>
    </clipPath>
  </defs>
  <g id="picto_téléphone" transform="matrix(0.994, 0.109, -0.109, 0.994, 16.221, 0)" clip-path="url(#clip-path)">
    <path id="Tracé_349" data-name="Tracé 349" d="M12.175,0H58.439A12.17,12.17,0,0,1,70.614,12.165V136.246a12.171,12.171,0,0,1-12.175,12.166H12.175A12.17,12.17,0,0,1,0,136.246V12.165A12.17,12.17,0,0,1,12.175,0" fill="#3d3d3d" fill-rule="evenodd"/>
    <path id="Tracé_350" data-name="Tracé 350" d="M25.872,9.611a1.338,1.338,0,1,1-1.339,1.338,1.338,1.338,0,0,1,1.339-1.338" fill="#e9e9e9" fill-rule="evenodd"/>
    <path id="Tracé_351" data-name="Tracé 351" d="M31.351,9.611H44.743a1.338,1.338,0,0,1,0,2.676H31.351a1.338,1.338,0,1,1,0-2.676" fill="#e9e9e9" fill-rule="evenodd"/>
    <path id="Tracé_352" data-name="Tracé 352" d="M35.306,131.886a5.547,5.547,0,1,1-5.551,5.547,5.548,5.548,0,0,1,5.551-5.547" fill="#e9e9e9" fill-rule="evenodd"/>
    <rect id="Rectangle_9" data-name="Rectangle 9" width="60.875" height="105.834" transform="translate(4.87 20.681)" fill="#6ebec5"/>
    <path id="Tracé_353" data-name="Tracé 353" d="M13.959,88.555s-.769-6.321.626-9.966,2.324-4.458,6.618-5.068a14.227,14.227,0,0,0,7.264-2.851,9.445,9.445,0,0,1,2.156-1.411s-.167-4.337-2.283-6.875c0,0-.808-.3-.947-.877s-.554-3.117.047-4.179a1.573,1.573,0,0,0,.351-.862,7.038,7.038,0,0,1,2.353-6.139s.845-1.357-1.2-1.583a2.694,2.694,0,0,1,2.364.224.878.878,0,0,1,.33-1.318s-.384,1.381,1.116.925,3.635-.864,5.053-.338,1.759,1.257,3.567,1.361,2.457,2.41,2.505,3.281-.046,4.4.286,4.88a1.968,1.968,0,0,1,.332,1.669c-.11.848-.791,3.047-1.173,3.084a.916.916,0,0,0-.726.5,23.006,23.006,0,0,0-1.089,4.251c.018,1.075.042,2.3.88,2.555s1.928,1.767,2.6,2.44,4.629,1.586,6.42,2.424,2.521.715,3.569,4.214a38.519,38.519,0,0,1,1.887,9.664Z" fill="#4d4d4d" fill-rule="evenodd"/>
  </g>
</svg>
